<svg width="257" height="257" viewBox="0 0 257 257" fill="none" xmlns="http://www.w3.org/2000/svg">
<path d="M128.5 257C199.469 257 257 199.469 257 128.5C257 57.5314 199.469 0 128.5 0C57.5314 0 0 57.5314 0 128.5C0 199.469 57.5314 257 128.5 257Z" fill="black"/>
<path d="M128.231 243.275C191.62 243.275 243.007 191.889 243.007 128.5C243.007 65.1114 191.62 13.7247 128.231 13.7247C64.8425 13.7247 13.4558 65.1114 13.4558 128.5C13.4558 191.889 64.8425 243.275 128.231 243.275Z" fill="#FEF102"/>
<path d="M33.2351 144.647C47.2288 206.004 112.084 240.719 170.481 214.75C191.741 205.331 208.56 188.512 218.248 167.521C220.805 162.139 225.649 152.182 222.823 145.05C219.997 137.919 192.145 149.625 185.282 152.585C184.34 152.989 183.668 153.931 183.398 155.007C182.995 157.968 185.013 160.793 187.973 161.197H188.377L200.083 162.139C178.958 203.043 121.907 221.074 81.6749 188.377C72.6597 181.111 64.5864 172.499 59.2042 162.139C56.6476 157.16 54.2257 150.836 49.7853 147.338C45.4796 144.108 39.0209 143.032 33.2351 144.647Z" fill="black"/>
<mask id="path-4-outside-1_1_577" maskUnits="userSpaceOnUse" x="50.3278" y="59.2457" width="68" height="66" fill="black">
<rect fill="white" x="50.3278" y="59.2457" width="68" height="66"/>
<path d="M103.367 110.028C103.306 109.99 103.25 109.955 103.194 109.92C103.174 109.96 103.132 110.031 103.138 110.034C103.203 110.08 103.274 110.115 103.359 110.161C103.116 110.367 103.078 110.635 103.113 110.971C103.17 111.52 103.079 112.084 102.792 112.554C102.558 112.936 102.189 113.215 101.678 113.197C101.318 113.185 101.056 112.99 100.943 112.643C100.836 112.314 100.786 111.989 100.838 111.642C100.899 111.239 100.976 110.831 100.966 110.426C100.957 110.041 101.078 109.697 101.158 109.337C101.163 109.314 101.163 109.289 101.158 109.266C101.057 108.848 101.318 108.447 101.263 108.062C101.2 107.627 101.348 107.233 101.344 106.815C101.342 106.471 101.427 106.116 101.458 105.763C101.524 105.007 101.616 104.254 101.696 103.5C101.743 103.062 101.752 102.617 101.841 102.188C101.939 101.716 101.844 101.255 101.857 100.791C101.864 100.548 101.838 100.291 101.962 100.043C102.035 99.8987 101.969 99.6856 101.964 99.5037C101.959 99.3079 101.919 99.1061 101.953 98.9174C102.05 98.374 101.963 97.8219 102.051 97.2816C102.084 97.0778 102.158 96.8892 102.122 96.6692C102.096 96.5157 102.183 96.3468 102.18 96.1856C102.174 95.8976 102.128 95.6105 102.12 95.3225C102.114 95.1008 102.104 94.8691 102.158 94.658C102.274 94.2086 102.257 93.7527 102.287 93.2986C102.301 93.0807 102.246 92.8496 102.399 92.6541C102.416 92.632 102.429 92.5849 102.418 92.5656C102.286 92.3483 102.372 92.1135 102.351 91.8881C102.257 90.8951 102.518 89.9399 102.625 88.9683C102.663 88.625 102.631 88.274 102.631 87.8767C102.402 87.9208 102.22 87.9522 102.04 87.9916C101.71 88.0637 101.373 88.0957 101.04 88.1603C100.728 88.2209 100.456 88.349 100.171 88.463C100.14 88.4755 100.106 88.496 100.075 88.4933C99.8455 88.4731 99.6169 88.4382 99.387 88.4283C99.2739 88.4235 99.1552 88.4501 99.0457 88.4839C98.8941 88.5307 98.7397 88.5678 98.59 88.6298C98.4606 88.6835 98.3092 88.6907 98.1571 88.7607C97.9784 88.8429 97.7215 88.7958 97.5088 88.7536C97.1881 88.69 96.9176 88.8356 96.6481 88.9367C96.2665 89.0799 95.8889 89.1517 95.4815 89.1702C95.1037 89.1874 94.7052 89.148 94.3498 89.3444C94.3202 89.3607 94.2746 89.3752 94.2471 89.3641C93.9916 89.2611 93.7771 89.4421 93.5466 89.4831C93.4044 89.5085 93.2473 89.5482 93.099 89.5856C92.8059 89.6596 92.498 89.6849 92.2141 89.7825C91.9171 89.8847 91.6112 89.933 91.3088 89.9633C90.7421 90.02 90.1937 90.1656 89.6338 90.2492C89.3692 90.2886 89.0931 90.2598 88.8315 90.31C88.1536 90.4403 87.4497 90.4454 86.8011 90.7199C86.7575 90.7384 86.7144 90.7806 86.6731 90.7782C86.2101 90.7511 85.7961 90.976 85.3495 91.0298C85.2909 91.0369 85.2311 91.0442 85.1726 91.0401C84.7318 91.0094 84.3258 91.1252 83.9312 91.3119C83.8193 91.3648 83.6851 91.3763 83.5593 91.3928C83.295 91.4275 83.0168 91.4135 82.7682 91.4935C82.5377 91.5678 82.292 91.5163 82.066 91.645C81.916 91.7304 81.705 91.701 81.5277 91.7477C81.279 91.8131 81.0196 91.8287 80.782 91.9562C80.6582 92.0227 80.487 92.0238 80.339 92.0168C80.1527 92.0079 79.9836 92.184 79.773 92.0386C79.7193 92.0015 79.5484 92.1258 79.3971 92.1317C79.1126 92.1426 78.8315 92.2382 78.5487 92.2972C78.4117 92.3257 78.3523 92.5547 78.1627 92.4456C77.8671 92.6197 77.5182 92.5676 77.2043 92.6722C76.942 92.7596 76.6768 92.8678 76.3874 92.8032C76.1972 93.0255 75.8464 92.785 75.6713 93.0514C75.3577 93.028 75.0936 93.2075 74.7995 93.2645C74.6847 93.2868 74.5665 93.3011 74.4568 93.3389C74.0191 93.4899 73.5526 93.4522 73.108 93.5526C72.6475 93.6566 72.1888 93.768 71.7253 93.8771C71.7083 94.1004 71.6929 94.2969 71.6785 94.4935C71.6489 94.8987 71.6451 95.3079 71.5838 95.7084C71.5153 96.1557 71.5366 96.6021 71.5163 97.049C71.4955 97.5065 71.41 97.9606 71.3786 98.4179C71.3467 98.8834 71.3488 99.3512 71.3307 99.8178C71.3222 100.037 71.2993 100.255 71.2864 100.474C71.2699 100.754 71.2547 101.035 71.2432 101.317C71.2375 101.457 71.2411 101.598 71.2409 101.739C71.2404 102.078 71.282 102.416 71.2617 102.757C71.2332 103.235 71.182 103.709 71.2661 104.193C71.3034 104.407 71.1833 104.645 71.1605 104.875C71.1331 105.152 71.1158 105.432 71.1259 105.709C71.139 106.07 71.2019 106.429 71.2084 106.789C71.2134 107.062 71.1556 107.336 71.1404 107.611C71.116 108.054 71.0928 108.498 71.0914 108.942C71.0907 109.13 71.1242 109.317 71.1162 109.51C71.1059 109.759 71.0786 110.006 71.1381 110.264C71.1932 110.503 71.1248 110.769 71.1225 111.023C71.1217 111.112 71.1545 111.201 71.1752 111.29C71.1828 111.322 71.2194 111.37 71.2094 111.381C71.0388 111.574 71.187 111.793 71.1545 111.995C71.1323 112.134 71.1349 112.28 71.0945 112.412C70.9885 112.761 71.0847 113.113 71.0582 113.461C71.0547 113.508 71.045 113.579 71.0697 113.598C71.2841 113.762 71.1448 113.981 71.1785 114.172C71.2646 114.659 71.0868 115.141 71.1701 115.615C71.2484 116.06 71.1404 116.531 71.3624 116.954C71.2838 117.234 71.4569 117.488 71.443 117.769C71.424 118.155 71.3128 118.48 70.9569 118.648C70.5773 118.828 70.1836 118.813 69.8329 118.553C69.5574 118.349 69.3504 118.082 69.1664 117.791C69.019 117.558 69.0906 117.312 69.0958 117.081C69.1078 116.549 69.1439 116.022 68.978 115.504C68.9435 115.396 68.9399 115.261 68.9705 115.152C69.0618 114.827 69.0361 114.502 68.9802 114.182C68.9163 113.817 68.9747 113.452 68.9399 113.088C68.9046 112.719 68.8797 112.349 68.8675 111.979C68.8612 111.791 68.8946 111.601 68.9068 111.412C68.9342 110.986 69.0009 110.557 68.9754 110.134C68.942 109.578 68.9663 109.03 69.0317 108.48C69.037 108.435 69.0169 108.387 69.0256 108.343C69.0643 108.15 68.8154 108.011 68.9673 107.767C69.0603 107.618 68.976 107.371 69.0413 107.16C69.1223 106.897 69.0847 106.593 69.0011 106.341C68.9198 106.095 68.9422 105.845 69.0214 105.669C69.1326 105.421 69.0555 105.3 68.9358 105.2C68.9358 105.046 68.9364 104.938 68.9357 104.83C68.9336 104.525 69.0926 104.23 68.9912 103.918C69.1406 103.752 69.0959 103.54 69.0869 103.357C69.07 103.01 69.197 102.672 69.084 102.314C69.021 102.114 69.0897 101.867 69.1225 101.644C69.1697 101.324 69.1867 101.009 69.1015 100.693C69.0934 100.663 69.0865 100.613 69.1023 100.6C69.233 100.489 69.1307 100.298 69.1822 100.23C69.3002 100.075 69.1415 99.9391 69.1959 99.843C69.3197 99.6246 69.1187 99.4243 69.2001 99.2151C69.2129 99.1823 69.1304 99.1124 69.0852 99.0505C69.1986 98.8689 69.295 98.6619 69.2936 98.411C69.292 98.1102 69.2985 97.8055 69.3461 97.5098C69.3799 97.2997 69.3589 97.0992 69.3515 96.8937C69.3389 96.5418 69.3822 96.1981 69.4955 95.8619C69.5308 95.7572 69.533 95.6384 69.5343 95.5259C69.5372 95.2828 69.5485 95.0372 69.5186 94.7974C69.503 94.6726 69.4072 94.5578 69.3366 94.4167C68.7846 94.7074 68.1449 94.7124 67.5497 94.8988C67.322 94.9701 67.0631 95.0347 66.8003 95.0436C66.5514 95.0521 66.3063 95.1665 66.0592 95.2334C65.7887 95.3066 65.5178 95.3783 65.2472 95.4515C65.0884 95.4944 64.9319 95.549 64.7708 95.58C64.612 95.6106 64.447 95.609 64.2879 95.6382C64.0717 95.6779 63.8585 95.734 63.6437 95.7815C63.6214 95.7864 63.5826 95.7709 63.5752 95.7815C63.3999 96.0312 63.1364 95.9254 62.9043 95.9639C62.6695 96.0028 62.432 96.0026 62.2045 96.1571C61.9521 96.3286 61.6248 96.3551 61.3076 96.3894C60.8436 96.4394 60.3851 96.5508 59.9286 96.6552C59.5289 96.7465 59.1357 96.8653 58.739 96.9698C58.3149 97.0816 57.8877 97.1822 57.4665 97.3042C57.236 97.371 57.0354 97.351 56.8453 97.2045C56.2511 96.7465 56.125 95.9963 56.6973 95.4853C56.8568 95.3428 57.0809 95.2641 57.2861 95.1834C57.5369 95.0849 57.7983 95.0132 58.0561 94.9334C58.414 94.8226 58.7695 94.7061 59.1531 94.7111C59.2532 94.7124 59.3531 94.6463 59.4549 94.6178C59.9147 94.4892 60.3561 94.3098 60.8378 94.2389C61.354 94.1629 61.8564 93.994 62.3649 93.8665C62.4225 93.8521 62.488 93.8205 62.5386 93.8352C62.813 93.915 63.0382 93.7728 63.2267 93.634C63.5065 93.4278 63.8144 93.509 64.1079 93.4721C64.3588 93.4406 64.6078 93.4538 64.8507 93.3401C65.0692 93.238 65.3151 93.1952 65.5472 93.1209C65.9006 93.0077 66.2505 92.8833 66.6065 92.7791C66.6839 92.7565 66.7806 92.799 66.9426 92.8222C67.7839 92.6027 68.7095 92.3614 69.6668 92.1117C69.6668 92.0603 69.6709 91.9827 69.6653 91.9059C69.6621 91.862 69.6202 91.7917 69.6344 91.7801C69.8603 91.5944 69.6717 91.3644 69.707 91.1606C69.7157 91.1103 69.7262 91.06 69.7399 91.0109C69.7578 90.9469 69.8063 90.8792 69.7957 90.8213C69.7126 90.3639 69.824 89.9183 69.8861 89.4733C69.9093 89.3069 69.8221 89.1749 69.8593 88.9937C69.948 88.5616 69.9388 88.1087 69.9595 87.6639C69.9655 87.5362 69.9338 87.4073 69.928 87.2785C69.9238 87.1865 69.9136 87.0868 69.942 87.0027C69.9984 86.8355 70.0066 86.6807 69.9775 86.5015C69.9285 86.2001 69.9325 85.8977 70.0676 85.5982C70.1299 85.4598 70.072 85.269 70.0758 85.1021C70.0808 84.882 70.181 84.6528 70.0866 84.4446C69.983 84.216 70.1761 84.0066 70.0864 83.7904C70.3715 83.5718 70.0923 83.2314 70.2683 82.967C70.3567 82.8343 70.3004 82.6068 70.3142 82.4225C70.3217 82.3215 70.3458 82.2215 70.3495 82.1206C70.3523 82.0443 70.3392 81.9662 70.3242 81.8908C70.3179 81.8591 70.265 81.8217 70.2728 81.8044C70.4503 81.4048 70.3141 80.9763 70.3904 80.5652C70.4427 80.2833 70.4528 79.993 70.4129 79.696C70.386 79.4958 70.3768 79.2786 70.4537 79.0539C70.5498 78.7729 70.6713 78.4696 70.5729 78.1509C70.5378 78.0375 70.5116 77.9213 70.4745 77.78C70.4962 77.7406 70.5936 77.6344 70.5712 77.5929C70.5729 77.439 70.5706 77.2458 70.6127 77.0781C70.6239 77.0335 70.6713 76.9795 70.6578 76.9499C70.6853 76.6718 70.6769 76.3249 70.6853 76.0136C70.6938 75.6983 70.7558 75.3847 70.7836 75.0694C70.7976 74.9107 70.7929 74.7615 70.7328 74.595C70.6783 74.4439 70.7565 74.2376 70.7979 74.0608C70.8915 73.6617 70.9927 73.2703 70.9129 72.8488C70.8892 72.7239 71.0741 72.5659 70.8666 72.472C70.9642 72.1194 71.057 71.7923 71.0449 71.4297C71.0369 71.1907 70.973 70.9494 71.0716 70.6891C71.1601 70.4553 71.1058 70.1689 71.1235 69.9063C71.1327 69.7708 71.1793 69.6363 71.1768 69.5019C71.174 69.3501 71.1796 69.1916 71.1624 69.0491C71.1449 68.9053 71.1554 68.7622 71.1426 68.6201C71.1283 68.4614 71.1601 68.2986 71.146 68.1399C71.1395 68.0673 71.0712 68.0001 71.0211 67.9134C71.2078 67.8138 71.1385 67.6576 71.0524 67.4889C71.2437 67.3903 71.3056 67.2472 71.195 67.0864C71.2945 66.9375 71.3805 66.8119 71.4633 66.6842C71.7818 66.1936 72.1965 66.0905 72.7223 66.3686C73.0911 66.5637 73.3066 66.9534 73.3964 67.3499C73.4491 67.5825 73.3311 67.8537 73.2894 68.1075C73.266 68.2503 73.2185 68.3934 73.2215 68.5355C73.2361 69.2284 73.275 69.921 73.2805 70.6138C73.2821 70.8203 73.1836 71.0258 73.1661 71.2347C73.1382 71.5667 73.1443 71.9014 73.1276 72.2345C73.1097 72.5902 73.0448 72.9479 73.0678 73.3003C73.0984 73.768 72.897 74.2032 72.9103 74.6522C72.9238 75.1084 72.8589 75.5487 72.8043 75.9937C72.7674 76.2944 72.6793 76.5927 72.8298 76.8872C72.8394 76.9058 72.8355 76.9352 72.8294 76.9573C72.675 77.5282 72.6741 78.1135 72.6631 78.6981C72.6538 79.1953 72.6444 79.6926 72.625 80.1894C72.6164 80.4084 72.5755 80.626 72.562 80.8451C72.5271 81.4124 72.5061 81.9808 72.465 82.5477C72.4508 82.7441 72.3811 82.9359 72.3596 83.1324C72.3108 83.5774 72.2574 84.0233 72.2421 84.47C72.23 84.8251 72.3033 85.1788 72.3089 85.5372C72.3136 85.8392 72.2551 86.1279 72.2149 86.4202C72.1688 86.7549 72.1638 87.0921 72.1331 87.4242C72.0848 87.9458 72.2487 88.4916 71.9809 88.9944C71.9431 89.0653 71.9915 89.1777 71.9834 89.2695C71.9516 89.6269 71.9032 89.9832 71.8799 90.3412C71.8567 90.6999 71.9044 91.0594 71.8605 91.4205C71.8391 91.5965 71.93 91.6429 72.1072 91.5885C72.3264 91.5211 72.5395 91.4283 72.7625 91.3796C73.171 91.2904 73.5925 91.2533 73.9939 91.1417C74.318 91.0515 74.6567 91.0725 74.9766 90.9451C75.2901 90.8203 75.6265 90.7027 75.9581 90.6861C76.413 90.6633 76.8017 90.3965 77.2632 90.4097C77.4643 90.4154 77.6688 90.3022 77.8718 90.2433C78.2088 90.1455 78.5417 90.0295 78.9034 90.0724C78.9702 90.0803 79.0413 90.0458 79.1111 90.0354C79.3215 90.0038 79.5318 89.9721 79.7428 89.9448C80.1525 89.8919 80.5518 89.8048 80.9445 89.6685C81.2448 89.5642 81.5618 89.5045 81.8745 89.4399C82.2953 89.3528 82.7177 89.2719 83.1419 89.2047C83.3265 89.1755 83.5217 89.2093 83.7046 89.1749C83.947 89.1294 84.1825 89.0466 84.4202 88.9774C84.8441 88.854 85.2625 88.7406 85.7188 88.7695C85.959 88.7848 86.2068 88.6602 86.4529 88.6067C86.678 88.5576 86.8928 88.4954 87.1391 88.518C87.3287 88.5354 87.5297 88.3942 87.7302 88.3406C87.874 88.3022 88.0252 88.2917 88.1732 88.2691C88.3124 88.2478 88.4532 88.234 88.5907 88.2048C89.3112 88.0513 90.03 87.8892 90.7515 87.7403C91.055 87.6775 91.3636 87.6397 91.704 87.5852C91.7119 87.6099 91.7316 87.6721 91.7602 87.7618C91.8922 87.7176 92.0252 87.6602 92.1641 87.6288C92.5884 87.5329 93.0162 87.4527 93.4402 87.3552C93.7496 87.2841 94.0528 87.1851 94.363 87.1182C94.5671 87.0743 94.7802 87.0736 94.9869 87.0386C95.3104 86.984 95.6572 86.9719 95.9465 86.8385C96.2094 86.7171 96.4753 86.6877 96.7329 86.688C96.9796 86.6882 97.1832 86.6093 97.3988 86.5335C97.5041 86.4965 97.5755 86.4598 97.7148 86.5295C97.8487 86.5966 98.0776 86.528 98.2444 86.4652C98.6541 86.3108 99.0703 86.2437 99.5059 86.2665C99.5826 86.2705 99.6613 86.2242 99.74 86.2049C100.102 86.1157 100.462 86.016 100.827 85.9431C101.136 85.8815 101.45 85.8298 101.764 85.8144C102.017 85.8021 102.235 85.5752 102.504 85.7075C102.687 85.5987 102.796 85.43 102.831 85.2301C102.88 84.9503 102.925 84.6649 102.919 84.3829C102.916 84.2282 103.083 84.1034 102.944 83.913C102.857 83.7934 102.879 83.5766 102.893 83.4066C102.915 83.1237 102.969 82.8433 103.011 82.5621C103.016 82.5275 103.047 82.4939 103.044 82.4615C102.999 81.883 103.234 81.3267 103.171 80.7432C103.147 80.5146 103.18 80.2681 103.241 80.0449C103.319 79.7633 103.301 79.4924 103.269 79.2125C103.238 78.9462 103.213 78.6792 103.379 78.4343C103.42 78.3741 103.41 78.2764 103.416 78.1953C103.44 77.8048 103.531 77.4192 103.446 77.0205C103.417 76.8842 103.482 76.7186 103.532 76.5763C103.701 76.0967 103.704 75.5967 103.751 75.0993C103.787 74.707 103.862 74.3136 103.967 73.9337C104.05 73.6316 104.046 73.3131 104.14 73.0244C104.262 72.6511 104.109 72.2699 104.251 71.8959C104.333 71.6816 104.189 71.3933 104.322 71.1791C104.572 70.7765 104.552 70.3046 104.7 69.8763C104.801 69.5821 104.797 69.2533 104.868 68.9464C104.939 68.6382 105.074 68.3431 105.127 68.0329C105.184 67.697 105.177 67.3503 105.2 67.0084C105.218 66.7406 105.228 66.4712 105.266 66.2061C105.286 66.0703 105.341 65.929 105.416 65.8144C105.524 65.6515 105.658 65.5044 105.795 65.3638C105.847 65.31 105.934 65.2726 106.01 65.2622C106.684 65.169 107.211 65.4752 107.501 66.0817C107.545 66.1736 107.596 66.2622 107.63 66.3264C107.579 66.7154 107.547 67.0975 107.477 67.4728C107.411 67.8272 107.381 68.1958 107.292 68.5338C107.191 68.918 107.094 69.2893 107.083 69.6873C107.08 69.7954 107.031 69.9451 106.952 69.9992C106.791 70.1086 106.811 70.2591 106.847 70.3783C106.914 70.5932 106.872 70.7421 106.711 70.8924C106.657 70.9424 106.64 71.0685 106.656 71.1502C106.701 71.3826 106.635 71.5764 106.541 71.7875C106.419 72.065 106.373 72.3673 106.433 72.679C106.459 72.8135 106.464 72.9609 106.438 73.0946C106.382 73.3832 106.295 73.6656 106.23 73.9525C106.182 74.159 106.148 74.3687 106.108 74.5768C106.094 74.6462 106.095 74.724 106.062 74.7834C105.848 75.1749 105.888 75.5923 105.919 76.0115C105.938 76.2568 105.96 76.5043 105.946 76.7487C105.937 76.8975 105.972 77.1088 105.722 77.097C105.722 77.3224 105.713 77.5119 105.726 77.7001C105.732 77.7938 105.78 77.8828 105.644 77.9223C105.634 77.9251 105.645 78.0158 105.654 78.0641C105.707 78.3352 105.724 78.5775 105.589 78.8596C105.459 79.131 105.458 79.4754 105.449 79.789C105.443 80.0161 105.521 80.2447 105.552 80.474C105.56 80.5379 105.528 80.6063 105.52 80.6733C105.501 80.8367 105.492 81.0017 105.465 81.1636C105.446 81.2745 105.433 81.4058 105.366 81.4847C105.234 81.64 105.228 81.8108 105.257 81.9834C105.312 82.3063 105.379 82.6209 105.183 82.9268C105.148 82.98 105.202 83.0841 105.2 83.1643C105.195 83.4505 105.195 83.7376 105.169 84.0222C105.148 84.2646 105.098 84.5047 105.053 84.7446C105.02 84.9224 104.975 85.0984 105.154 85.2325C105.581 85.2094 106.005 85.1596 106.405 84.9885C106.448 84.9704 106.498 84.9655 106.545 84.9657C106.966 84.9671 107.355 84.8402 107.746 84.6961C107.962 84.6165 108.204 84.6035 108.436 84.5741C108.749 84.5343 109.065 84.5077 109.38 84.4755C109.391 84.4742 109.404 84.4759 109.415 84.4713C109.81 84.2969 110.257 84.3214 110.652 84.1369C111.031 83.9601 111.428 84.0019 111.81 84.1353C111.972 84.192 112.138 84.2778 112.14 84.5032C112.14 84.5526 112.202 84.5989 112.223 84.6516C112.41 85.1065 112.312 85.4916 111.934 85.8422C111.886 85.8865 111.87 85.9647 111.832 86.0413C111.757 86.0487 111.627 86.0231 111.583 86.073C111.444 86.2285 111.257 86.1783 111.098 86.2336C110.645 86.3909 110.173 86.4446 109.706 86.536C109.391 86.5978 109.023 86.5623 108.759 86.8375C108.717 86.8811 108.571 86.8069 108.493 86.8375C108.355 86.8913 108.238 86.9442 108.074 86.9505C107.94 86.9556 107.797 87.0928 107.624 87.0491C107.382 87.3034 107.062 87.1056 106.8 87.1876C106.329 87.3354 105.789 87.1771 105.367 87.5212C105.35 87.5351 105.319 87.5512 105.304 87.5448C105.011 87.4276 104.991 87.6519 104.954 87.8318C104.884 88.1707 104.785 88.5096 104.912 88.8589C104.966 89.0092 104.909 89.1375 104.801 89.2446C104.702 89.342 104.641 89.4493 104.688 89.5932C104.692 89.604 104.691 89.6172 104.689 89.6287C104.611 90.0858 104.657 90.5336 104.763 90.9829C104.788 91.0912 104.719 91.2223 104.692 91.3427C104.616 91.6785 104.472 92.0081 104.61 92.3625C104.625 92.4001 104.605 92.4529 104.596 92.4975C104.524 92.8487 104.5 93.2003 104.522 93.5605C104.537 93.793 104.514 94.0373 104.455 94.2622C104.382 94.5367 104.384 94.7869 104.455 95.0642C104.532 95.364 104.441 95.677 104.393 95.9813C104.371 96.121 104.311 96.2582 104.31 96.3968C104.309 96.5543 104.325 96.7249 104.387 96.8665C104.472 97.0609 104.438 97.252 104.343 97.3896C104.161 97.6555 104.198 97.9338 104.258 98.1974C104.286 98.3212 104.304 98.4262 104.259 98.5299C104.135 98.8159 104.19 99.1057 104.219 99.3959C104.222 99.4304 104.25 99.4645 104.247 99.4972C104.223 99.7844 104.225 100.078 104.16 100.357C104.071 100.738 104.141 101.109 104.151 101.486C104.16 101.835 104.163 102.194 104.091 102.531C104.048 102.732 104.045 102.919 104.053 103.114C104.065 103.389 104.101 103.644 103.909 103.908C103.798 104.062 103.846 104.34 103.841 104.562C103.83 105.055 103.797 105.544 103.674 106.025C103.642 106.148 103.621 106.285 103.64 106.409C103.683 106.681 103.644 106.936 103.545 107.188C103.53 107.228 103.528 107.278 103.535 107.321C103.593 107.709 103.519 108.087 103.456 108.466C103.436 108.582 103.413 108.7 103.413 108.817C103.412 109.194 103.423 109.571 103.425 109.948C103.426 109.975 103.388 110.002 103.367 110.028Z"/>
</mask>
<path d="M103.367 110.028C103.306 109.99 103.25 109.955 103.194 109.92C103.174 109.96 103.132 110.031 103.138 110.034C103.203 110.08 103.274 110.115 103.359 110.161C103.116 110.367 103.078 110.635 103.113 110.971C103.17 111.52 103.079 112.084 102.792 112.554C102.558 112.936 102.189 113.215 101.678 113.197C101.318 113.185 101.056 112.99 100.943 112.643C100.836 112.314 100.786 111.989 100.838 111.642C100.899 111.239 100.976 110.831 100.966 110.426C100.957 110.041 101.078 109.697 101.158 109.337C101.163 109.314 101.163 109.289 101.158 109.266C101.057 108.848 101.318 108.447 101.263 108.062C101.2 107.627 101.348 107.233 101.344 106.815C101.342 106.471 101.427 106.116 101.458 105.763C101.524 105.007 101.616 104.254 101.696 103.5C101.743 103.062 101.752 102.617 101.841 102.188C101.939 101.716 101.844 101.255 101.857 100.791C101.864 100.548 101.838 100.291 101.962 100.043C102.035 99.8987 101.969 99.6856 101.964 99.5037C101.959 99.3079 101.919 99.1061 101.953 98.9174C102.05 98.374 101.963 97.8219 102.051 97.2816C102.084 97.0778 102.158 96.8892 102.122 96.6692C102.096 96.5157 102.183 96.3468 102.18 96.1856C102.174 95.8976 102.128 95.6105 102.12 95.3225C102.114 95.1008 102.104 94.8691 102.158 94.658C102.274 94.2086 102.257 93.7527 102.287 93.2986C102.301 93.0807 102.246 92.8496 102.399 92.6541C102.416 92.632 102.429 92.5849 102.418 92.5656C102.286 92.3483 102.372 92.1135 102.351 91.8881C102.257 90.8951 102.518 89.9399 102.625 88.9683C102.663 88.625 102.631 88.274 102.631 87.8767C102.402 87.9208 102.22 87.9522 102.04 87.9916C101.71 88.0637 101.373 88.0957 101.04 88.1603C100.728 88.2209 100.456 88.349 100.171 88.463C100.14 88.4755 100.106 88.496 100.075 88.4933C99.8455 88.4731 99.6169 88.4382 99.387 88.4283C99.2739 88.4235 99.1552 88.4501 99.0457 88.4839C98.8941 88.5307 98.7397 88.5678 98.59 88.6298C98.4606 88.6835 98.3092 88.6907 98.1571 88.7607C97.9784 88.8429 97.7215 88.7958 97.5088 88.7536C97.1881 88.69 96.9176 88.8356 96.6481 88.9367C96.2665 89.0799 95.8889 89.1517 95.4815 89.1702C95.1037 89.1874 94.7052 89.148 94.3498 89.3444C94.3202 89.3607 94.2746 89.3752 94.2471 89.3641C93.9916 89.2611 93.7771 89.4421 93.5466 89.4831C93.4044 89.5085 93.2473 89.5482 93.099 89.5856C92.8059 89.6596 92.498 89.6849 92.2141 89.7825C91.9171 89.8847 91.6112 89.933 91.3088 89.9633C90.7421 90.02 90.1937 90.1656 89.6338 90.2492C89.3692 90.2886 89.0931 90.2598 88.8315 90.31C88.1536 90.4403 87.4497 90.4454 86.8011 90.7199C86.7575 90.7384 86.7144 90.7806 86.6731 90.7782C86.2101 90.7511 85.7961 90.976 85.3495 91.0298C85.2909 91.0369 85.2311 91.0442 85.1726 91.0401C84.7318 91.0094 84.3258 91.1252 83.9312 91.3119C83.8193 91.3648 83.6851 91.3763 83.5593 91.3928C83.295 91.4275 83.0168 91.4135 82.7682 91.4935C82.5377 91.5678 82.292 91.5163 82.066 91.645C81.916 91.7304 81.705 91.701 81.5277 91.7477C81.279 91.8131 81.0196 91.8287 80.782 91.9562C80.6582 92.0227 80.487 92.0238 80.339 92.0168C80.1527 92.0079 79.9836 92.184 79.773 92.0386C79.7193 92.0015 79.5484 92.1258 79.3971 92.1317C79.1126 92.1426 78.8315 92.2382 78.5487 92.2972C78.4117 92.3257 78.3523 92.5547 78.1627 92.4456C77.8671 92.6197 77.5182 92.5676 77.2043 92.6722C76.942 92.7596 76.6768 92.8678 76.3874 92.8032C76.1972 93.0255 75.8464 92.785 75.6713 93.0514C75.3577 93.028 75.0936 93.2075 74.7995 93.2645C74.6847 93.2868 74.5665 93.3011 74.4568 93.3389C74.0191 93.4899 73.5526 93.4522 73.108 93.5526C72.6475 93.6566 72.1888 93.768 71.7253 93.8771C71.7083 94.1004 71.6929 94.2969 71.6785 94.4935C71.6489 94.8987 71.6451 95.3079 71.5838 95.7084C71.5153 96.1557 71.5366 96.6021 71.5163 97.049C71.4955 97.5065 71.41 97.9606 71.3786 98.4179C71.3467 98.8834 71.3488 99.3512 71.3307 99.8178C71.3222 100.037 71.2993 100.255 71.2864 100.474C71.2699 100.754 71.2547 101.035 71.2432 101.317C71.2375 101.457 71.2411 101.598 71.2409 101.739C71.2404 102.078 71.282 102.416 71.2617 102.757C71.2332 103.235 71.182 103.709 71.2661 104.193C71.3034 104.407 71.1833 104.645 71.1605 104.875C71.1331 105.152 71.1158 105.432 71.1259 105.709C71.139 106.07 71.2019 106.429 71.2084 106.789C71.2134 107.062 71.1556 107.336 71.1404 107.611C71.116 108.054 71.0928 108.498 71.0914 108.942C71.0907 109.13 71.1242 109.317 71.1162 109.51C71.1059 109.759 71.0786 110.006 71.1381 110.264C71.1932 110.503 71.1248 110.769 71.1225 111.023C71.1217 111.112 71.1545 111.201 71.1752 111.29C71.1828 111.322 71.2194 111.37 71.2094 111.381C71.0388 111.574 71.187 111.793 71.1545 111.995C71.1323 112.134 71.1349 112.28 71.0945 112.412C70.9885 112.761 71.0847 113.113 71.0582 113.461C71.0547 113.508 71.045 113.579 71.0697 113.598C71.2841 113.762 71.1448 113.981 71.1785 114.172C71.2646 114.659 71.0868 115.141 71.1701 115.615C71.2484 116.06 71.1404 116.531 71.3624 116.954C71.2838 117.234 71.4569 117.488 71.443 117.769C71.424 118.155 71.3128 118.48 70.9569 118.648C70.5773 118.828 70.1836 118.813 69.8329 118.553C69.5574 118.349 69.3504 118.082 69.1664 117.791C69.019 117.558 69.0906 117.312 69.0958 117.081C69.1078 116.549 69.1439 116.022 68.978 115.504C68.9435 115.396 68.9399 115.261 68.9705 115.152C69.0618 114.827 69.0361 114.502 68.9802 114.182C68.9163 113.817 68.9747 113.452 68.9399 113.088C68.9046 112.719 68.8797 112.349 68.8675 111.979C68.8612 111.791 68.8946 111.601 68.9068 111.412C68.9342 110.986 69.0009 110.557 68.9754 110.134C68.942 109.578 68.9663 109.03 69.0317 108.48C69.037 108.435 69.0169 108.387 69.0256 108.343C69.0643 108.15 68.8154 108.011 68.9673 107.767C69.0603 107.618 68.976 107.371 69.0413 107.16C69.1223 106.897 69.0847 106.593 69.0011 106.341C68.9198 106.095 68.9422 105.845 69.0214 105.669C69.1326 105.421 69.0555 105.3 68.9358 105.2C68.9358 105.046 68.9364 104.938 68.9357 104.83C68.9336 104.525 69.0926 104.23 68.9912 103.918C69.1406 103.752 69.0959 103.54 69.0869 103.357C69.07 103.01 69.197 102.672 69.084 102.314C69.021 102.114 69.0897 101.867 69.1225 101.644C69.1697 101.324 69.1867 101.009 69.1015 100.693C69.0934 100.663 69.0865 100.613 69.1023 100.6C69.233 100.489 69.1307 100.298 69.1822 100.23C69.3002 100.075 69.1415 99.9391 69.1959 99.843C69.3197 99.6246 69.1187 99.4243 69.2001 99.2151C69.2129 99.1823 69.1304 99.1124 69.0852 99.0505C69.1986 98.8689 69.295 98.6619 69.2936 98.411C69.292 98.1102 69.2985 97.8055 69.3461 97.5098C69.3799 97.2997 69.3589 97.0992 69.3515 96.8937C69.3389 96.5418 69.3822 96.1981 69.4955 95.8619C69.5308 95.7572 69.533 95.6384 69.5343 95.5259C69.5372 95.2828 69.5485 95.0372 69.5186 94.7974C69.503 94.6726 69.4072 94.5578 69.3366 94.4167C68.7846 94.7074 68.1449 94.7124 67.5497 94.8988C67.322 94.9701 67.0631 95.0347 66.8003 95.0436C66.5514 95.0521 66.3063 95.1665 66.0592 95.2334C65.7887 95.3066 65.5178 95.3783 65.2472 95.4515C65.0884 95.4944 64.9319 95.549 64.7708 95.58C64.612 95.6106 64.447 95.609 64.2879 95.6382C64.0717 95.6779 63.8585 95.734 63.6437 95.7815C63.6214 95.7864 63.5826 95.7709 63.5752 95.7815C63.3999 96.0312 63.1364 95.9254 62.9043 95.9639C62.6695 96.0028 62.432 96.0026 62.2045 96.1571C61.9521 96.3286 61.6248 96.3551 61.3076 96.3894C60.8436 96.4394 60.3851 96.5508 59.9286 96.6552C59.5289 96.7465 59.1357 96.8653 58.739 96.9698C58.3149 97.0816 57.8877 97.1822 57.4665 97.3042C57.236 97.371 57.0354 97.351 56.8453 97.2045C56.2511 96.7465 56.125 95.9963 56.6973 95.4853C56.8568 95.3428 57.0809 95.2641 57.2861 95.1834C57.5369 95.0849 57.7983 95.0132 58.0561 94.9334C58.414 94.8226 58.7695 94.7061 59.1531 94.7111C59.2532 94.7124 59.3531 94.6463 59.4549 94.6178C59.9147 94.4892 60.3561 94.3098 60.8378 94.2389C61.354 94.1629 61.8564 93.994 62.3649 93.8665C62.4225 93.8521 62.488 93.8205 62.5386 93.8352C62.813 93.915 63.0382 93.7728 63.2267 93.634C63.5065 93.4278 63.8144 93.509 64.1079 93.4721C64.3588 93.4406 64.6078 93.4538 64.8507 93.3401C65.0692 93.238 65.3151 93.1952 65.5472 93.1209C65.9006 93.0077 66.2505 92.8833 66.6065 92.7791C66.6839 92.7565 66.7806 92.799 66.9426 92.8222C67.7839 92.6027 68.7095 92.3614 69.6668 92.1117C69.6668 92.0603 69.6709 91.9827 69.6653 91.9059C69.6621 91.862 69.6202 91.7917 69.6344 91.7801C69.8603 91.5944 69.6717 91.3644 69.707 91.1606C69.7157 91.1103 69.7262 91.06 69.7399 91.0109C69.7578 90.9469 69.8063 90.8792 69.7957 90.8213C69.7126 90.3639 69.824 89.9183 69.8861 89.4733C69.9093 89.3069 69.8221 89.1749 69.8593 88.9937C69.948 88.5616 69.9388 88.1087 69.9595 87.6639C69.9655 87.5362 69.9338 87.4073 69.928 87.2785C69.9238 87.1865 69.9136 87.0868 69.942 87.0027C69.9984 86.8355 70.0066 86.6807 69.9775 86.5015C69.9285 86.2001 69.9325 85.8977 70.0676 85.5982C70.1299 85.4598 70.072 85.269 70.0758 85.1021C70.0808 84.882 70.181 84.6528 70.0866 84.4446C69.983 84.216 70.1761 84.0066 70.0864 83.7904C70.3715 83.5718 70.0923 83.2314 70.2683 82.967C70.3567 82.8343 70.3004 82.6068 70.3142 82.4225C70.3217 82.3215 70.3458 82.2215 70.3495 82.1206C70.3523 82.0443 70.3392 81.9662 70.3242 81.8908C70.3179 81.8591 70.265 81.8217 70.2728 81.8044C70.4503 81.4048 70.3141 80.9763 70.3904 80.5652C70.4427 80.2833 70.4528 79.993 70.4129 79.696C70.386 79.4958 70.3768 79.2786 70.4537 79.0539C70.5498 78.7729 70.6713 78.4696 70.5729 78.1509C70.5378 78.0375 70.5116 77.9213 70.4745 77.78C70.4962 77.7406 70.5936 77.6344 70.5712 77.5929C70.5729 77.439 70.5706 77.2458 70.6127 77.0781C70.6239 77.0335 70.6713 76.9795 70.6578 76.9499C70.6853 76.6718 70.6769 76.3249 70.6853 76.0136C70.6938 75.6983 70.7558 75.3847 70.7836 75.0694C70.7976 74.9107 70.7929 74.7615 70.7328 74.595C70.6783 74.4439 70.7565 74.2376 70.7979 74.0608C70.8915 73.6617 70.9927 73.2703 70.9129 72.8488C70.8892 72.7239 71.0741 72.5659 70.8666 72.472C70.9642 72.1194 71.057 71.7923 71.0449 71.4297C71.0369 71.1907 70.973 70.9494 71.0716 70.6891C71.1601 70.4553 71.1058 70.1689 71.1235 69.9063C71.1327 69.7708 71.1793 69.6363 71.1768 69.5019C71.174 69.3501 71.1796 69.1916 71.1624 69.0491C71.1449 68.9053 71.1554 68.7622 71.1426 68.6201C71.1283 68.4614 71.1601 68.2986 71.146 68.1399C71.1395 68.0673 71.0712 68.0001 71.0211 67.9134C71.2078 67.8138 71.1385 67.6576 71.0524 67.4889C71.2437 67.3903 71.3056 67.2472 71.195 67.0864C71.2945 66.9375 71.3805 66.8119 71.4633 66.6842C71.7818 66.1936 72.1965 66.0905 72.7223 66.3686C73.0911 66.5637 73.3066 66.9534 73.3964 67.3499C73.4491 67.5825 73.3311 67.8537 73.2894 68.1075C73.266 68.2503 73.2185 68.3934 73.2215 68.5355C73.2361 69.2284 73.275 69.921 73.2805 70.6138C73.2821 70.8203 73.1836 71.0258 73.1661 71.2347C73.1382 71.5667 73.1443 71.9014 73.1276 72.2345C73.1097 72.5902 73.0448 72.9479 73.0678 73.3003C73.0984 73.768 72.897 74.2032 72.9103 74.6522C72.9238 75.1084 72.8589 75.5487 72.8043 75.9937C72.7674 76.2944 72.6793 76.5927 72.8298 76.8872C72.8394 76.9058 72.8355 76.9352 72.8294 76.9573C72.675 77.5282 72.6741 78.1135 72.6631 78.6981C72.6538 79.1953 72.6444 79.6926 72.625 80.1894C72.6164 80.4084 72.5755 80.626 72.562 80.8451C72.5271 81.4124 72.5061 81.9808 72.465 82.5477C72.4508 82.7441 72.3811 82.9359 72.3596 83.1324C72.3108 83.5774 72.2574 84.0233 72.2421 84.47C72.23 84.8251 72.3033 85.1788 72.3089 85.5372C72.3136 85.8392 72.2551 86.1279 72.2149 86.4202C72.1688 86.7549 72.1638 87.0921 72.1331 87.4242C72.0848 87.9458 72.2487 88.4916 71.9809 88.9944C71.9431 89.0653 71.9915 89.1777 71.9834 89.2695C71.9516 89.6269 71.9032 89.9832 71.8799 90.3412C71.8567 90.6999 71.9044 91.0594 71.8605 91.4205C71.8391 91.5965 71.93 91.6429 72.1072 91.5885C72.3264 91.5211 72.5395 91.4283 72.7625 91.3796C73.171 91.2904 73.5925 91.2533 73.9939 91.1417C74.318 91.0515 74.6567 91.0725 74.9766 90.9451C75.2901 90.8203 75.6265 90.7027 75.9581 90.6861C76.413 90.6633 76.8017 90.3965 77.2632 90.4097C77.4643 90.4154 77.6688 90.3022 77.8718 90.2433C78.2088 90.1455 78.5417 90.0295 78.9034 90.0724C78.9702 90.0803 79.0413 90.0458 79.1111 90.0354C79.3215 90.0038 79.5318 89.9721 79.7428 89.9448C80.1525 89.8919 80.5518 89.8048 80.9445 89.6685C81.2448 89.5642 81.5618 89.5045 81.8745 89.4399C82.2953 89.3528 82.7177 89.2719 83.1419 89.2047C83.3265 89.1755 83.5217 89.2093 83.7046 89.1749C83.947 89.1294 84.1825 89.0466 84.4202 88.9774C84.8441 88.854 85.2625 88.7406 85.7188 88.7695C85.959 88.7848 86.2068 88.6602 86.4529 88.6067C86.678 88.5576 86.8928 88.4954 87.1391 88.518C87.3287 88.5354 87.5297 88.3942 87.7302 88.3406C87.874 88.3022 88.0252 88.2917 88.1732 88.2691C88.3124 88.2478 88.4532 88.234 88.5907 88.2048C89.3112 88.0513 90.03 87.8892 90.7515 87.7403C91.055 87.6775 91.3636 87.6397 91.704 87.5852C91.7119 87.6099 91.7316 87.6721 91.7602 87.7618C91.8922 87.7176 92.0252 87.6602 92.1641 87.6288C92.5884 87.5329 93.0162 87.4527 93.4402 87.3552C93.7496 87.2841 94.0528 87.1851 94.363 87.1182C94.5671 87.0743 94.7802 87.0736 94.9869 87.0386C95.3104 86.984 95.6572 86.9719 95.9465 86.8385C96.2094 86.7171 96.4753 86.6877 96.7329 86.688C96.9796 86.6882 97.1832 86.6093 97.3988 86.5335C97.5041 86.4965 97.5755 86.4598 97.7148 86.5295C97.8487 86.5966 98.0776 86.528 98.2444 86.4652C98.6541 86.3108 99.0703 86.2437 99.5059 86.2665C99.5826 86.2705 99.6613 86.2242 99.74 86.2049C100.102 86.1157 100.462 86.016 100.827 85.9431C101.136 85.8815 101.45 85.8298 101.764 85.8144C102.017 85.8021 102.235 85.5752 102.504 85.7075C102.687 85.5987 102.796 85.43 102.831 85.2301C102.88 84.9503 102.925 84.6649 102.919 84.3829C102.916 84.2282 103.083 84.1034 102.944 83.913C102.857 83.7934 102.879 83.5766 102.893 83.4066C102.915 83.1237 102.969 82.8433 103.011 82.5621C103.016 82.5275 103.047 82.4939 103.044 82.4615C102.999 81.883 103.234 81.3267 103.171 80.7432C103.147 80.5146 103.18 80.2681 103.241 80.0449C103.319 79.7633 103.301 79.4924 103.269 79.2125C103.238 78.9462 103.213 78.6792 103.379 78.4343C103.42 78.3741 103.41 78.2764 103.416 78.1953C103.44 77.8048 103.531 77.4192 103.446 77.0205C103.417 76.8842 103.482 76.7186 103.532 76.5763C103.701 76.0967 103.704 75.5967 103.751 75.0993C103.787 74.707 103.862 74.3136 103.967 73.9337C104.05 73.6316 104.046 73.3131 104.14 73.0244C104.262 72.6511 104.109 72.2699 104.251 71.8959C104.333 71.6816 104.189 71.3933 104.322 71.1791C104.572 70.7765 104.552 70.3046 104.7 69.8763C104.801 69.5821 104.797 69.2533 104.868 68.9464C104.939 68.6382 105.074 68.3431 105.127 68.0329C105.184 67.697 105.177 67.3503 105.2 67.0084C105.218 66.7406 105.228 66.4712 105.266 66.2061C105.286 66.0703 105.341 65.929 105.416 65.8144C105.524 65.6515 105.658 65.5044 105.795 65.3638C105.847 65.31 105.934 65.2726 106.01 65.2622C106.684 65.169 107.211 65.4752 107.501 66.0817C107.545 66.1736 107.596 66.2622 107.63 66.3264C107.579 66.7154 107.547 67.0975 107.477 67.4728C107.411 67.8272 107.381 68.1958 107.292 68.5338C107.191 68.918 107.094 69.2893 107.083 69.6873C107.08 69.7954 107.031 69.9451 106.952 69.9992C106.791 70.1086 106.811 70.2591 106.847 70.3783C106.914 70.5932 106.872 70.7421 106.711 70.8924C106.657 70.9424 106.64 71.0685 106.656 71.1502C106.701 71.3826 106.635 71.5764 106.541 71.7875C106.419 72.065 106.373 72.3673 106.433 72.679C106.459 72.8135 106.464 72.9609 106.438 73.0946C106.382 73.3832 106.295 73.6656 106.23 73.9525C106.182 74.159 106.148 74.3687 106.108 74.5768C106.094 74.6462 106.095 74.724 106.062 74.7834C105.848 75.1749 105.888 75.5923 105.919 76.0115C105.938 76.2568 105.96 76.5043 105.946 76.7487C105.937 76.8975 105.972 77.1088 105.722 77.097C105.722 77.3224 105.713 77.5119 105.726 77.7001C105.732 77.7938 105.78 77.8828 105.644 77.9223C105.634 77.9251 105.645 78.0158 105.654 78.0641C105.707 78.3352 105.724 78.5775 105.589 78.8596C105.459 79.131 105.458 79.4754 105.449 79.789C105.443 80.0161 105.521 80.2447 105.552 80.474C105.56 80.5379 105.528 80.6063 105.52 80.6733C105.501 80.8367 105.492 81.0017 105.465 81.1636C105.446 81.2745 105.433 81.4058 105.366 81.4847C105.234 81.64 105.228 81.8108 105.257 81.9834C105.312 82.3063 105.379 82.6209 105.183 82.9268C105.148 82.98 105.202 83.0841 105.2 83.1643C105.195 83.4505 105.195 83.7376 105.169 84.0222C105.148 84.2646 105.098 84.5047 105.053 84.7446C105.02 84.9224 104.975 85.0984 105.154 85.2325C105.581 85.2094 106.005 85.1596 106.405 84.9885C106.448 84.9704 106.498 84.9655 106.545 84.9657C106.966 84.9671 107.355 84.8402 107.746 84.6961C107.962 84.6165 108.204 84.6035 108.436 84.5741C108.749 84.5343 109.065 84.5077 109.38 84.4755C109.391 84.4742 109.404 84.4759 109.415 84.4713C109.81 84.2969 110.257 84.3214 110.652 84.1369C111.031 83.9601 111.428 84.0019 111.81 84.1353C111.972 84.192 112.138 84.2778 112.14 84.5032C112.14 84.5526 112.202 84.5989 112.223 84.6516C112.41 85.1065 112.312 85.4916 111.934 85.8422C111.886 85.8865 111.87 85.9647 111.832 86.0413C111.757 86.0487 111.627 86.0231 111.583 86.073C111.444 86.2285 111.257 86.1783 111.098 86.2336C110.645 86.3909 110.173 86.4446 109.706 86.536C109.391 86.5978 109.023 86.5623 108.759 86.8375C108.717 86.8811 108.571 86.8069 108.493 86.8375C108.355 86.8913 108.238 86.9442 108.074 86.9505C107.94 86.9556 107.797 87.0928 107.624 87.0491C107.382 87.3034 107.062 87.1056 106.8 87.1876C106.329 87.3354 105.789 87.1771 105.367 87.5212C105.35 87.5351 105.319 87.5512 105.304 87.5448C105.011 87.4276 104.991 87.6519 104.954 87.8318C104.884 88.1707 104.785 88.5096 104.912 88.8589C104.966 89.0092 104.909 89.1375 104.801 89.2446C104.702 89.342 104.641 89.4493 104.688 89.5932C104.692 89.604 104.691 89.6172 104.689 89.6287C104.611 90.0858 104.657 90.5336 104.763 90.9829C104.788 91.0912 104.719 91.2223 104.692 91.3427C104.616 91.6785 104.472 92.0081 104.61 92.3625C104.625 92.4001 104.605 92.4529 104.596 92.4975C104.524 92.8487 104.5 93.2003 104.522 93.5605C104.537 93.793 104.514 94.0373 104.455 94.2622C104.382 94.5367 104.384 94.7869 104.455 95.0642C104.532 95.364 104.441 95.677 104.393 95.9813C104.371 96.121 104.311 96.2582 104.31 96.3968C104.309 96.5543 104.325 96.7249 104.387 96.8665C104.472 97.0609 104.438 97.252 104.343 97.3896C104.161 97.6555 104.198 97.9338 104.258 98.1974C104.286 98.3212 104.304 98.4262 104.259 98.5299C104.135 98.8159 104.19 99.1057 104.219 99.3959C104.222 99.4304 104.25 99.4645 104.247 99.4972C104.223 99.7844 104.225 100.078 104.16 100.357C104.071 100.738 104.141 101.109 104.151 101.486C104.16 101.835 104.163 102.194 104.091 102.531C104.048 102.732 104.045 102.919 104.053 103.114C104.065 103.389 104.101 103.644 103.909 103.908C103.798 104.062 103.846 104.34 103.841 104.562C103.83 105.055 103.797 105.544 103.674 106.025C103.642 106.148 103.621 106.285 103.64 106.409C103.683 106.681 103.644 106.936 103.545 107.188C103.53 107.228 103.528 107.278 103.535 107.321C103.593 107.709 103.519 108.087 103.456 108.466C103.436 108.582 103.413 108.7 103.413 108.817C103.412 109.194 103.423 109.571 103.425 109.948C103.426 109.975 103.388 110.002 103.367 110.028Z" fill="black"/>
<path d="M103.367 110.028C103.306 109.99 103.25 109.955 103.194 109.92C103.174 109.96 103.132 110.031 103.138 110.034C103.203 110.08 103.274 110.115 103.359 110.161C103.116 110.367 103.078 110.635 103.113 110.971C103.17 111.52 103.079 112.084 102.792 112.554C102.558 112.936 102.189 113.215 101.678 113.197C101.318 113.185 101.056 112.99 100.943 112.643C100.836 112.314 100.786 111.989 100.838 111.642C100.899 111.239 100.976 110.831 100.966 110.426C100.957 110.041 101.078 109.697 101.158 109.337C101.163 109.314 101.163 109.289 101.158 109.266C101.057 108.848 101.318 108.447 101.263 108.062C101.2 107.627 101.348 107.233 101.344 106.815C101.342 106.471 101.427 106.116 101.458 105.763C101.524 105.007 101.616 104.254 101.696 103.5C101.743 103.062 101.752 102.617 101.841 102.188C101.939 101.716 101.844 101.255 101.857 100.791C101.864 100.548 101.838 100.291 101.962 100.043C102.035 99.8987 101.969 99.6856 101.964 99.5037C101.959 99.3079 101.919 99.1061 101.953 98.9174C102.05 98.374 101.963 97.8219 102.051 97.2816C102.084 97.0778 102.158 96.8892 102.122 96.6692C102.096 96.5157 102.183 96.3468 102.18 96.1856C102.174 95.8976 102.128 95.6105 102.12 95.3225C102.114 95.1008 102.104 94.8691 102.158 94.658C102.274 94.2086 102.257 93.7527 102.287 93.2986C102.301 93.0807 102.246 92.8496 102.399 92.6541C102.416 92.632 102.429 92.5849 102.418 92.5656C102.286 92.3483 102.372 92.1135 102.351 91.8881C102.257 90.8951 102.518 89.9399 102.625 88.9683C102.663 88.625 102.631 88.274 102.631 87.8767C102.402 87.9208 102.22 87.9522 102.04 87.9916C101.71 88.0637 101.373 88.0957 101.04 88.1603C100.728 88.2209 100.456 88.349 100.171 88.463C100.14 88.4755 100.106 88.496 100.075 88.4933C99.8455 88.4731 99.6169 88.4382 99.387 88.4283C99.2739 88.4235 99.1552 88.4501 99.0457 88.4839C98.8941 88.5307 98.7397 88.5678 98.59 88.6298C98.4606 88.6835 98.3092 88.6907 98.1571 88.7607C97.9784 88.8429 97.7215 88.7958 97.5088 88.7536C97.1881 88.69 96.9176 88.8356 96.6481 88.9367C96.2665 89.0799 95.8889 89.1517 95.4815 89.1702C95.1037 89.1874 94.7052 89.148 94.3498 89.3444C94.3202 89.3607 94.2746 89.3752 94.2471 89.3641C93.9916 89.2611 93.7771 89.4421 93.5466 89.4831C93.4044 89.5085 93.2473 89.5482 93.099 89.5856C92.8059 89.6596 92.498 89.6849 92.2141 89.7825C91.9171 89.8847 91.6112 89.933 91.3088 89.9633C90.7421 90.02 90.1937 90.1656 89.6338 90.2492C89.3692 90.2886 89.0931 90.2598 88.8315 90.31C88.1536 90.4403 87.4497 90.4454 86.8011 90.7199C86.7575 90.7384 86.7144 90.7806 86.6731 90.7782C86.2101 90.7511 85.7961 90.976 85.3495 91.0298C85.2909 91.0369 85.2311 91.0442 85.1726 91.0401C84.7318 91.0094 84.3258 91.1252 83.9312 91.3119C83.8193 91.3648 83.6851 91.3763 83.5593 91.3928C83.295 91.4275 83.0168 91.4135 82.7682 91.4935C82.5377 91.5678 82.292 91.5163 82.066 91.645C81.916 91.7304 81.705 91.701 81.5277 91.7477C81.279 91.8131 81.0196 91.8287 80.782 91.9562C80.6582 92.0227 80.487 92.0238 80.339 92.0168C80.1527 92.0079 79.9836 92.184 79.773 92.0386C79.7193 92.0015 79.5484 92.1258 79.3971 92.1317C79.1126 92.1426 78.8315 92.2382 78.5487 92.2972C78.4117 92.3257 78.3523 92.5547 78.1627 92.4456C77.8671 92.6197 77.5182 92.5676 77.2043 92.6722C76.942 92.7596 76.6768 92.8678 76.3874 92.8032C76.1972 93.0255 75.8464 92.785 75.6713 93.0514C75.3577 93.028 75.0936 93.2075 74.7995 93.2645C74.6847 93.2868 74.5665 93.3011 74.4568 93.3389C74.0191 93.4899 73.5526 93.4522 73.108 93.5526C72.6475 93.6566 72.1888 93.768 71.7253 93.8771C71.7083 94.1004 71.6929 94.2969 71.6785 94.4935C71.6489 94.8987 71.6451 95.3079 71.5838 95.7084C71.5153 96.1557 71.5366 96.6021 71.5163 97.049C71.4955 97.5065 71.41 97.9606 71.3786 98.4179C71.3467 98.8834 71.3488 99.3512 71.3307 99.8178C71.3222 100.037 71.2993 100.255 71.2864 100.474C71.2699 100.754 71.2547 101.035 71.2432 101.317C71.2375 101.457 71.2411 101.598 71.2409 101.739C71.2404 102.078 71.282 102.416 71.2617 102.757C71.2332 103.235 71.182 103.709 71.2661 104.193C71.3034 104.407 71.1833 104.645 71.1605 104.875C71.1331 105.152 71.1158 105.432 71.1259 105.709C71.139 106.07 71.2019 106.429 71.2084 106.789C71.2134 107.062 71.1556 107.336 71.1404 107.611C71.116 108.054 71.0928 108.498 71.0914 108.942C71.0907 109.13 71.1242 109.317 71.1162 109.51C71.1059 109.759 71.0786 110.006 71.1381 110.264C71.1932 110.503 71.1248 110.769 71.1225 111.023C71.1217 111.112 71.1545 111.201 71.1752 111.29C71.1828 111.322 71.2194 111.37 71.2094 111.381C71.0388 111.574 71.187 111.793 71.1545 111.995C71.1323 112.134 71.1349 112.28 71.0945 112.412C70.9885 112.761 71.0847 113.113 71.0582 113.461C71.0547 113.508 71.045 113.579 71.0697 113.598C71.2841 113.762 71.1448 113.981 71.1785 114.172C71.2646 114.659 71.0868 115.141 71.1701 115.615C71.2484 116.06 71.1404 116.531 71.3624 116.954C71.2838 117.234 71.4569 117.488 71.443 117.769C71.424 118.155 71.3128 118.48 70.9569 118.648C70.5773 118.828 70.1836 118.813 69.8329 118.553C69.5574 118.349 69.3504 118.082 69.1664 117.791C69.019 117.558 69.0906 117.312 69.0958 117.081C69.1078 116.549 69.1439 116.022 68.978 115.504C68.9435 115.396 68.9399 115.261 68.9705 115.152C69.0618 114.827 69.0361 114.502 68.9802 114.182C68.9163 113.817 68.9747 113.452 68.9399 113.088C68.9046 112.719 68.8797 112.349 68.8675 111.979C68.8612 111.791 68.8946 111.601 68.9068 111.412C68.9342 110.986 69.0009 110.557 68.9754 110.134C68.942 109.578 68.9663 109.03 69.0317 108.48C69.037 108.435 69.0169 108.387 69.0256 108.343C69.0643 108.15 68.8154 108.011 68.9673 107.767C69.0603 107.618 68.976 107.371 69.0413 107.16C69.1223 106.897 69.0847 106.593 69.0011 106.341C68.9198 106.095 68.9422 105.845 69.0214 105.669C69.1326 105.421 69.0555 105.3 68.9358 105.2C68.9358 105.046 68.9364 104.938 68.9357 104.83C68.9336 104.525 69.0926 104.23 68.9912 103.918C69.1406 103.752 69.0959 103.54 69.0869 103.357C69.07 103.01 69.197 102.672 69.084 102.314C69.021 102.114 69.0897 101.867 69.1225 101.644C69.1697 101.324 69.1867 101.009 69.1015 100.693C69.0934 100.663 69.0865 100.613 69.1023 100.6C69.233 100.489 69.1307 100.298 69.1822 100.23C69.3002 100.075 69.1415 99.9391 69.1959 99.843C69.3197 99.6246 69.1187 99.4243 69.2001 99.2151C69.2129 99.1823 69.1304 99.1124 69.0852 99.0505C69.1986 98.8689 69.295 98.6619 69.2936 98.411C69.292 98.1102 69.2985 97.8055 69.3461 97.5098C69.3799 97.2997 69.3589 97.0992 69.3515 96.8937C69.3389 96.5418 69.3822 96.1981 69.4955 95.8619C69.5308 95.7572 69.533 95.6384 69.5343 95.5259C69.5372 95.2828 69.5485 95.0372 69.5186 94.7974C69.503 94.6726 69.4072 94.5578 69.3366 94.4167C68.7846 94.7074 68.1449 94.7124 67.5497 94.8988C67.322 94.9701 67.0631 95.0347 66.8003 95.0436C66.5514 95.0521 66.3063 95.1665 66.0592 95.2334C65.7887 95.3066 65.5178 95.3783 65.2472 95.4515C65.0884 95.4944 64.9319 95.549 64.7708 95.58C64.612 95.6106 64.447 95.609 64.2879 95.6382C64.0717 95.6779 63.8585 95.734 63.6437 95.7815C63.6214 95.7864 63.5826 95.7709 63.5752 95.7815C63.3999 96.0312 63.1364 95.9254 62.9043 95.9639C62.6695 96.0028 62.432 96.0026 62.2045 96.1571C61.9521 96.3286 61.6248 96.3551 61.3076 96.3894C60.8436 96.4394 60.3851 96.5508 59.9286 96.6552C59.5289 96.7465 59.1357 96.8653 58.739 96.9698C58.3149 97.0816 57.8877 97.1822 57.4665 97.3042C57.236 97.371 57.0354 97.351 56.8453 97.2045C56.2511 96.7465 56.125 95.9963 56.6973 95.4853C56.8568 95.3428 57.0809 95.2641 57.2861 95.1834C57.5369 95.0849 57.7983 95.0132 58.0561 94.9334C58.414 94.8226 58.7695 94.7061 59.1531 94.7111C59.2532 94.7124 59.3531 94.6463 59.4549 94.6178C59.9147 94.4892 60.3561 94.3098 60.8378 94.2389C61.354 94.1629 61.8564 93.994 62.3649 93.8665C62.4225 93.8521 62.488 93.8205 62.5386 93.8352C62.813 93.915 63.0382 93.7728 63.2267 93.634C63.5065 93.4278 63.8144 93.509 64.1079 93.4721C64.3588 93.4406 64.6078 93.4538 64.8507 93.3401C65.0692 93.238 65.3151 93.1952 65.5472 93.1209C65.9006 93.0077 66.2505 92.8833 66.6065 92.7791C66.6839 92.7565 66.7806 92.799 66.9426 92.8222C67.7839 92.6027 68.7095 92.3614 69.6668 92.1117C69.6668 92.0603 69.6709 91.9827 69.6653 91.9059C69.6621 91.862 69.6202 91.7917 69.6344 91.7801C69.8603 91.5944 69.6717 91.3644 69.707 91.1606C69.7157 91.1103 69.7262 91.06 69.7399 91.0109C69.7578 90.9469 69.8063 90.8792 69.7957 90.8213C69.7126 90.3639 69.824 89.9183 69.8861 89.4733C69.9093 89.3069 69.8221 89.1749 69.8593 88.9937C69.948 88.5616 69.9388 88.1087 69.9595 87.6639C69.9655 87.5362 69.9338 87.4073 69.928 87.2785C69.9238 87.1865 69.9136 87.0868 69.942 87.0027C69.9984 86.8355 70.0066 86.6807 69.9775 86.5015C69.9285 86.2001 69.9325 85.8977 70.0676 85.5982C70.1299 85.4598 70.072 85.269 70.0758 85.1021C70.0808 84.882 70.181 84.6528 70.0866 84.4446C69.983 84.216 70.1761 84.0066 70.0864 83.7904C70.3715 83.5718 70.0923 83.2314 70.2683 82.967C70.3567 82.8343 70.3004 82.6068 70.3142 82.4225C70.3217 82.3215 70.3458 82.2215 70.3495 82.1206C70.3523 82.0443 70.3392 81.9662 70.3242 81.8908C70.3179 81.8591 70.265 81.8217 70.2728 81.8044C70.4503 81.4048 70.3141 80.9763 70.3904 80.5652C70.4427 80.2833 70.4528 79.993 70.4129 79.696C70.386 79.4958 70.3768 79.2786 70.4537 79.0539C70.5498 78.7729 70.6713 78.4696 70.5729 78.1509C70.5378 78.0375 70.5116 77.9213 70.4745 77.78C70.4962 77.7406 70.5936 77.6344 70.5712 77.5929C70.5729 77.439 70.5706 77.2458 70.6127 77.0781C70.6239 77.0335 70.6713 76.9795 70.6578 76.9499C70.6853 76.6718 70.6769 76.3249 70.6853 76.0136C70.6938 75.6983 70.7558 75.3847 70.7836 75.0694C70.7976 74.9107 70.7929 74.7615 70.7328 74.595C70.6783 74.4439 70.7565 74.2376 70.7979 74.0608C70.8915 73.6617 70.9927 73.2703 70.9129 72.8488C70.8892 72.7239 71.0741 72.5659 70.8666 72.472C70.9642 72.1194 71.057 71.7923 71.0449 71.4297C71.0369 71.1907 70.973 70.9494 71.0716 70.6891C71.1601 70.4553 71.1058 70.1689 71.1235 69.9063C71.1327 69.7708 71.1793 69.6363 71.1768 69.5019C71.174 69.3501 71.1796 69.1916 71.1624 69.0491C71.1449 68.9053 71.1554 68.7622 71.1426 68.6201C71.1283 68.4614 71.1601 68.2986 71.146 68.1399C71.1395 68.0673 71.0712 68.0001 71.0211 67.9134C71.2078 67.8138 71.1385 67.6576 71.0524 67.4889C71.2437 67.3903 71.3056 67.2472 71.195 67.0864C71.2945 66.9375 71.3805 66.8119 71.4633 66.6842C71.7818 66.1936 72.1965 66.0905 72.7223 66.3686C73.0911 66.5637 73.3066 66.9534 73.3964 67.3499C73.4491 67.5825 73.3311 67.8537 73.2894 68.1075C73.266 68.2503 73.2185 68.3934 73.2215 68.5355C73.2361 69.2284 73.275 69.921 73.2805 70.6138C73.2821 70.8203 73.1836 71.0258 73.1661 71.2347C73.1382 71.5667 73.1443 71.9014 73.1276 72.2345C73.1097 72.5902 73.0448 72.9479 73.0678 73.3003C73.0984 73.768 72.897 74.2032 72.9103 74.6522C72.9238 75.1084 72.8589 75.5487 72.8043 75.9937C72.7674 76.2944 72.6793 76.5927 72.8298 76.8872C72.8394 76.9058 72.8355 76.9352 72.8294 76.9573C72.675 77.5282 72.6741 78.1135 72.6631 78.6981C72.6538 79.1953 72.6444 79.6926 72.625 80.1894C72.6164 80.4084 72.5755 80.626 72.562 80.8451C72.5271 81.4124 72.5061 81.9808 72.465 82.5477C72.4508 82.7441 72.3811 82.9359 72.3596 83.1324C72.3108 83.5774 72.2574 84.0233 72.2421 84.47C72.23 84.8251 72.3033 85.1788 72.3089 85.5372C72.3136 85.8392 72.2551 86.1279 72.2149 86.4202C72.1688 86.7549 72.1638 87.0921 72.1331 87.4242C72.0848 87.9458 72.2487 88.4916 71.9809 88.9944C71.9431 89.0653 71.9915 89.1777 71.9834 89.2695C71.9516 89.6269 71.9032 89.9832 71.8799 90.3412C71.8567 90.6999 71.9044 91.0594 71.8605 91.4205C71.8391 91.5965 71.93 91.6429 72.1072 91.5885C72.3264 91.5211 72.5395 91.4283 72.7625 91.3796C73.171 91.2904 73.5925 91.2533 73.9939 91.1417C74.318 91.0515 74.6567 91.0725 74.9766 90.9451C75.2901 90.8203 75.6265 90.7027 75.9581 90.6861C76.413 90.6633 76.8017 90.3965 77.2632 90.4097C77.4643 90.4154 77.6688 90.3022 77.8718 90.2433C78.2088 90.1455 78.5417 90.0295 78.9034 90.0724C78.9702 90.0803 79.0413 90.0458 79.1111 90.0354C79.3215 90.0038 79.5318 89.9721 79.7428 89.9448C80.1525 89.8919 80.5518 89.8048 80.9445 89.6685C81.2448 89.5642 81.5618 89.5045 81.8745 89.4399C82.2953 89.3528 82.7177 89.2719 83.1419 89.2047C83.3265 89.1755 83.5217 89.2093 83.7046 89.1749C83.947 89.1294 84.1825 89.0466 84.4202 88.9774C84.8441 88.854 85.2625 88.7406 85.7188 88.7695C85.959 88.7848 86.2068 88.6602 86.4529 88.6067C86.678 88.5576 86.8928 88.4954 87.1391 88.518C87.3287 88.5354 87.5297 88.3942 87.7302 88.3406C87.874 88.3022 88.0252 88.2917 88.1732 88.2691C88.3124 88.2478 88.4532 88.234 88.5907 88.2048C89.3112 88.0513 90.03 87.8892 90.7515 87.7403C91.055 87.6775 91.3636 87.6397 91.704 87.5852C91.7119 87.6099 91.7316 87.6721 91.7602 87.7618C91.8922 87.7176 92.0252 87.6602 92.1641 87.6288C92.5884 87.5329 93.0162 87.4527 93.4402 87.3552C93.7496 87.2841 94.0528 87.1851 94.363 87.1182C94.5671 87.0743 94.7802 87.0736 94.9869 87.0386C95.3104 86.984 95.6572 86.9719 95.9465 86.8385C96.2094 86.7171 96.4753 86.6877 96.7329 86.688C96.9796 86.6882 97.1832 86.6093 97.3988 86.5335C97.5041 86.4965 97.5755 86.4598 97.7148 86.5295C97.8487 86.5966 98.0776 86.528 98.2444 86.4652C98.6541 86.3108 99.0703 86.2437 99.5059 86.2665C99.5826 86.2705 99.6613 86.2242 99.74 86.2049C100.102 86.1157 100.462 86.016 100.827 85.9431C101.136 85.8815 101.45 85.8298 101.764 85.8144C102.017 85.8021 102.235 85.5752 102.504 85.7075C102.687 85.5987 102.796 85.43 102.831 85.2301C102.88 84.9503 102.925 84.6649 102.919 84.3829C102.916 84.2282 103.083 84.1034 102.944 83.913C102.857 83.7934 102.879 83.5766 102.893 83.4066C102.915 83.1237 102.969 82.8433 103.011 82.5621C103.016 82.5275 103.047 82.4939 103.044 82.4615C102.999 81.883 103.234 81.3267 103.171 80.7432C103.147 80.5146 103.18 80.2681 103.241 80.0449C103.319 79.7633 103.301 79.4924 103.269 79.2125C103.238 78.9462 103.213 78.6792 103.379 78.4343C103.42 78.3741 103.41 78.2764 103.416 78.1953C103.44 77.8048 103.531 77.4192 103.446 77.0205C103.417 76.8842 103.482 76.7186 103.532 76.5763C103.701 76.0967 103.704 75.5967 103.751 75.0993C103.787 74.707 103.862 74.3136 103.967 73.9337C104.05 73.6316 104.046 73.3131 104.14 73.0244C104.262 72.6511 104.109 72.2699 104.251 71.8959C104.333 71.6816 104.189 71.3933 104.322 71.1791C104.572 70.7765 104.552 70.3046 104.7 69.8763C104.801 69.5821 104.797 69.2533 104.868 68.9464C104.939 68.6382 105.074 68.3431 105.127 68.0329C105.184 67.697 105.177 67.3503 105.2 67.0084C105.218 66.7406 105.228 66.4712 105.266 66.2061C105.286 66.0703 105.341 65.929 105.416 65.8144C105.524 65.6515 105.658 65.5044 105.795 65.3638C105.847 65.31 105.934 65.2726 106.01 65.2622C106.684 65.169 107.211 65.4752 107.501 66.0817C107.545 66.1736 107.596 66.2622 107.63 66.3264C107.579 66.7154 107.547 67.0975 107.477 67.4728C107.411 67.8272 107.381 68.1958 107.292 68.5338C107.191 68.918 107.094 69.2893 107.083 69.6873C107.08 69.7954 107.031 69.9451 106.952 69.9992C106.791 70.1086 106.811 70.2591 106.847 70.3783C106.914 70.5932 106.872 70.7421 106.711 70.8924C106.657 70.9424 106.64 71.0685 106.656 71.1502C106.701 71.3826 106.635 71.5764 106.541 71.7875C106.419 72.065 106.373 72.3673 106.433 72.679C106.459 72.8135 106.464 72.9609 106.438 73.0946C106.382 73.3832 106.295 73.6656 106.23 73.9525C106.182 74.159 106.148 74.3687 106.108 74.5768C106.094 74.6462 106.095 74.724 106.062 74.7834C105.848 75.1749 105.888 75.5923 105.919 76.0115C105.938 76.2568 105.96 76.5043 105.946 76.7487C105.937 76.8975 105.972 77.1088 105.722 77.097C105.722 77.3224 105.713 77.5119 105.726 77.7001C105.732 77.7938 105.78 77.8828 105.644 77.9223C105.634 77.9251 105.645 78.0158 105.654 78.0641C105.707 78.3352 105.724 78.5775 105.589 78.8596C105.459 79.131 105.458 79.4754 105.449 79.789C105.443 80.0161 105.521 80.2447 105.552 80.474C105.56 80.5379 105.528 80.6063 105.52 80.6733C105.501 80.8367 105.492 81.0017 105.465 81.1636C105.446 81.2745 105.433 81.4058 105.366 81.4847C105.234 81.64 105.228 81.8108 105.257 81.9834C105.312 82.3063 105.379 82.6209 105.183 82.9268C105.148 82.98 105.202 83.0841 105.2 83.1643C105.195 83.4505 105.195 83.7376 105.169 84.0222C105.148 84.2646 105.098 84.5047 105.053 84.7446C105.02 84.9224 104.975 85.0984 105.154 85.2325C105.581 85.2094 106.005 85.1596 106.405 84.9885C106.448 84.9704 106.498 84.9655 106.545 84.9657C106.966 84.9671 107.355 84.8402 107.746 84.6961C107.962 84.6165 108.204 84.6035 108.436 84.5741C108.749 84.5343 109.065 84.5077 109.38 84.4755C109.391 84.4742 109.404 84.4759 109.415 84.4713C109.81 84.2969 110.257 84.3214 110.652 84.1369C111.031 83.9601 111.428 84.0019 111.81 84.1353C111.972 84.192 112.138 84.2778 112.14 84.5032C112.14 84.5526 112.202 84.5989 112.223 84.6516C112.41 85.1065 112.312 85.4916 111.934 85.8422C111.886 85.8865 111.87 85.9647 111.832 86.0413C111.757 86.0487 111.627 86.0231 111.583 86.073C111.444 86.2285 111.257 86.1783 111.098 86.2336C110.645 86.3909 110.173 86.4446 109.706 86.536C109.391 86.5978 109.023 86.5623 108.759 86.8375C108.717 86.8811 108.571 86.8069 108.493 86.8375C108.355 86.8913 108.238 86.9442 108.074 86.9505C107.94 86.9556 107.797 87.0928 107.624 87.0491C107.382 87.3034 107.062 87.1056 106.8 87.1876C106.329 87.3354 105.789 87.1771 105.367 87.5212C105.35 87.5351 105.319 87.5512 105.304 87.5448C105.011 87.4276 104.991 87.6519 104.954 87.8318C104.884 88.1707 104.785 88.5096 104.912 88.8589C104.966 89.0092 104.909 89.1375 104.801 89.2446C104.702 89.342 104.641 89.4493 104.688 89.5932C104.692 89.604 104.691 89.6172 104.689 89.6287C104.611 90.0858 104.657 90.5336 104.763 90.9829C104.788 91.0912 104.719 91.2223 104.692 91.3427C104.616 91.6785 104.472 92.0081 104.61 92.3625C104.625 92.4001 104.605 92.4529 104.596 92.4975C104.524 92.8487 104.5 93.2003 104.522 93.5605C104.537 93.793 104.514 94.0373 104.455 94.2622C104.382 94.5367 104.384 94.7869 104.455 95.0642C104.532 95.364 104.441 95.677 104.393 95.9813C104.371 96.121 104.311 96.2582 104.31 96.3968C104.309 96.5543 104.325 96.7249 104.387 96.8665C104.472 97.0609 104.438 97.252 104.343 97.3896C104.161 97.6555 104.198 97.9338 104.258 98.1974C104.286 98.3212 104.304 98.4262 104.259 98.5299C104.135 98.8159 104.19 99.1057 104.219 99.3959C104.222 99.4304 104.25 99.4645 104.247 99.4972C104.223 99.7844 104.225 100.078 104.16 100.357C104.071 100.738 104.141 101.109 104.151 101.486C104.16 101.835 104.163 102.194 104.091 102.531C104.048 102.732 104.045 102.919 104.053 103.114C104.065 103.389 104.101 103.644 103.909 103.908C103.798 104.062 103.846 104.34 103.841 104.562C103.83 105.055 103.797 105.544 103.674 106.025C103.642 106.148 103.621 106.285 103.64 106.409C103.683 106.681 103.644 106.936 103.545 107.188C103.53 107.228 103.528 107.278 103.535 107.321C103.593 107.709 103.519 108.087 103.456 108.466C103.436 108.582 103.413 108.7 103.413 108.817C103.412 109.194 103.423 109.571 103.425 109.948C103.426 109.975 103.388 110.002 103.367 110.028Z" stroke="black" stroke-width="11.9933" mask="url(#path-4-outside-1_1_577)"/>
<mask id="path-5-outside-2_1_577" maskUnits="userSpaceOnUse" x="146.487" y="59.2467" width="55" height="66" fill="black">
<rect fill="white" x="146.487" y="59.2467" width="55" height="66"/>
<path d="M156.483 94.6822C156.165 94.9248 155.793 94.9375 155.405 94.9255C155.173 94.9183 154.938 94.9563 154.706 94.9878C154.438 95.0244 154.172 95.1107 153.904 95.1132C153.535 95.1166 153.197 94.9683 152.907 94.7673C152.336 94.3721 152.421 93.8179 152.725 93.4205C152.74 93.4009 152.773 93.3872 152.777 93.367C152.863 92.9837 153.268 92.9537 153.546 92.7858C153.603 92.7513 153.693 92.7561 153.769 92.7553C154.25 92.7496 154.721 92.747 155.18 92.5461C155.464 92.4219 155.807 92.4108 156.125 92.3523C156.49 92.285 156.521 92.2387 156.405 91.9281C156.383 91.8716 156.337 91.7997 156.357 91.7573C156.575 91.3049 156.269 90.8294 156.435 90.3758C156.454 90.3232 156.438 90.2567 156.427 90.1982C156.322 89.5973 156.256 88.9949 156.327 88.3856C156.334 88.328 156.309 88.2672 156.297 88.2081C156.282 88.1341 156.306 87.8397 156.312 87.7449C156.319 87.6273 156.313 87.5065 156.292 87.3905C156.243 87.1322 156.2 86.8774 156.239 86.612C156.262 86.4635 156.287 86.2831 156.218 86.1617C156.058 85.8817 156.148 85.5929 156.161 85.3232C156.181 84.8802 156.064 84.4335 156.139 84.0099C156.198 83.6746 156.094 83.4184 155.994 83.1323C155.961 83.0371 155.974 82.9264 155.976 82.823C155.98 82.6103 156.01 82.3963 155.992 82.1855C155.974 81.9672 155.99 81.7632 156.042 81.5473C156.078 81.4035 155.973 81.2334 155.945 81.0731C155.93 80.985 155.908 80.8743 155.951 80.8056C156.105 80.5557 156.023 80.3075 155.987 80.0556C155.966 79.9039 155.938 79.7504 155.943 79.5987C155.957 79.2434 155.98 78.8921 155.95 78.5331C155.92 78.1641 155.936 77.7947 155.786 77.4421C155.777 77.4206 155.776 77.3936 155.78 77.3702C155.829 77.0334 155.884 76.6972 155.929 76.3598C155.961 76.116 155.921 75.88 155.87 75.636C155.782 75.2094 155.799 74.7708 155.857 74.3373C155.898 74.0347 155.831 73.7434 155.764 73.4498C155.745 73.3665 155.788 73.273 155.788 73.1842C155.787 73.024 155.772 72.8639 155.77 72.7036C155.769 72.6247 155.781 72.5455 155.788 72.4666C155.794 72.4101 155.831 72.3332 155.804 72.3012C155.705 72.1845 155.774 72.0578 155.751 71.9474C155.675 71.5784 155.822 71.2351 155.832 70.8799C155.84 70.5729 155.805 70.2648 155.807 69.9574C155.808 69.8573 155.84 69.7384 155.906 69.6618C156.032 69.5133 156.197 69.3937 156.336 69.2532C156.622 68.9639 157.007 68.9578 157.381 68.9553C157.679 68.9532 158.071 69.2871 158.152 69.5704C158.234 69.8559 158.305 70.1439 158.39 70.4655C158.586 70.4235 158.809 70.3748 159.034 70.3278C159.122 70.3092 159.212 70.2971 159.3 70.277C159.424 70.2487 159.628 70.3637 159.637 70.1231C159.84 70.204 159.972 69.981 160.146 70.0121C160.414 70.0598 160.662 70.0323 160.891 69.9128C161.218 69.7415 161.639 69.8396 161.939 69.5938C161.985 69.5565 162.062 69.5315 162.123 69.5334C162.932 69.5589 163.652 69.2143 164.42 69.0761C164.761 69.0148 165.108 68.9748 165.454 68.9516C165.69 68.9358 165.909 68.8828 166.137 68.8365C166.674 68.7271 167.178 68.5049 167.742 68.4729C168.294 68.4417 168.854 68.3862 169.384 68.2513C169.644 68.1851 169.885 68.196 170.135 68.1697C170.333 68.1489 170.527 68.0951 170.722 68.0534C171.031 67.9874 171.34 67.9192 171.648 67.8522C171.737 67.8331 171.824 67.8059 171.914 67.7981C172.353 67.7594 172.792 67.7223 173.232 67.6924C173.412 67.6801 173.594 67.6947 173.775 67.6835C173.903 67.6755 174.034 67.6575 174.157 67.6217C174.506 67.5195 174.844 67.3551 175.2 67.3072C175.976 67.203 176.736 67.0052 177.523 66.9793C177.901 66.7821 178.346 66.9461 178.73 66.7867C179.153 66.8988 179.545 66.5193 179.974 66.722C180.341 66.6472 180.708 66.5713 181.076 66.4983C181.201 66.4735 181.327 66.4487 181.454 66.4367C181.792 66.4047 182.134 66.4214 182.456 66.2728C182.588 66.2117 182.763 66.2199 182.92 66.2144C183.15 66.2062 183.371 66.199 183.585 66.0875C183.715 66.0199 183.886 66.0119 184.042 65.9951C184.518 65.9435 184.995 65.9063 185.476 65.9489C185.576 65.9578 185.681 65.9259 185.782 65.9072C185.987 65.8694 186.199 65.7754 186.394 65.799C186.775 65.845 187.116 65.7581 187.465 65.6575C187.517 65.6424 187.585 65.6779 187.645 65.6777C187.714 65.6776 187.799 65.6844 187.85 65.652C187.979 65.5691 188.116 65.5905 188.258 65.5764C188.614 65.5409 188.967 65.5148 189.322 65.5741C189.86 65.3625 190.423 65.4049 190.989 65.411C191.319 65.4144 191.649 65.2979 191.982 65.2556C192.147 65.2347 192.319 65.2558 192.487 65.2659C192.551 65.2698 192.62 65.3216 192.675 65.3085C193.063 65.215 193.384 65.3854 193.733 65.4917C194.357 65.6818 194.861 66.3073 194.891 66.8686C194.907 67.1676 194.705 67.4052 194.504 67.6406C194.363 67.8067 194.189 67.7869 194.017 67.8195C193.726 67.8746 193.442 67.8691 193.181 67.7143C192.937 67.5693 192.668 67.6709 192.411 67.6496C192.283 67.6392 192.139 67.6766 192.03 67.6338C191.578 67.4572 191.138 67.6204 190.693 67.6438C190.431 67.6576 190.167 67.6709 189.906 67.6965C189.62 67.7245 189.337 67.7706 189.052 67.8013C188.35 67.8767 187.642 67.9197 186.947 68.0293C186.388 68.1176 185.831 68.1565 185.267 68.1956C184.947 68.2178 184.609 68.2249 184.287 68.2984C183.96 68.3732 183.63 68.4818 183.299 68.4873C182.69 68.4975 182.1 68.6016 181.523 68.7433C180.954 68.8827 180.379 68.8555 179.807 68.909C179.54 68.934 179.251 68.9425 179.02 69.0481C178.843 69.1288 178.703 69.0902 178.543 69.0992C178.35 69.1102 178.159 69.1451 177.967 69.1706C177.524 69.2293 177.076 69.2651 176.641 69.3536C176.113 69.4609 175.593 69.5745 175.049 69.6241C174.5 69.6743 173.964 69.8516 173.422 69.9724C173.334 69.9919 173.246 70.0117 173.156 70.0229C172.774 70.071 172.392 70.1213 172.008 70.16C171.761 70.185 171.509 70.1812 171.262 70.2096C171.071 70.2315 170.884 70.286 170.695 70.3215C170.403 70.3762 170.11 70.464 169.817 70.4704C169.419 70.4792 169.048 70.5584 168.668 70.6501C168.197 70.7637 167.711 70.8217 167.232 70.9069C167.157 70.9203 167.086 70.9526 167.012 70.9729C166.703 71.0581 166.39 71.2167 166.085 71.2065C165.754 71.1954 165.439 71.2421 165.125 71.2859C164.797 71.3314 164.464 71.3629 164.144 71.4853C163.88 71.5866 163.574 71.5945 163.286 71.6464C162.794 71.7354 162.287 71.7639 161.842 72.0267C161.696 72.1133 161.487 72.1095 161.307 72.1514C161.12 72.1951 160.936 72.2524 160.747 72.2888C160.346 72.3663 159.942 72.4347 159.54 72.5053C159.465 72.5183 159.384 72.5109 159.315 72.5362C159.111 72.6119 158.926 72.7207 158.685 72.7118C158.588 72.7082 158.486 72.8178 158.419 72.8568C158.372 73.245 158.314 73.6077 158.288 73.9724C158.265 74.2915 158.277 74.6128 158.276 74.9331C158.274 75.4092 158.286 75.8857 158.268 76.3611C158.259 76.5794 158.26 76.7753 158.348 76.9923C158.439 77.2188 158.474 77.4999 158.416 77.7322C158.358 77.9632 158.393 78.1691 158.407 78.3888C158.424 78.6359 158.405 78.8849 158.414 79.1326C158.431 79.6145 158.485 80.0968 158.472 80.5777C158.456 81.1504 158.453 81.7225 158.459 82.295C158.459 82.3425 158.428 82.3988 158.447 82.4361C158.677 82.897 158.599 83.3799 158.595 83.8614C158.593 84.0629 158.531 84.2762 158.658 84.4785C158.703 84.5503 158.663 84.6664 158.663 84.7623C158.663 85.4662 158.664 86.17 158.661 86.8738C158.66 87.1048 158.851 87.3156 158.741 87.5567C158.941 87.827 158.774 88.1147 158.78 88.3928C158.787 88.7462 158.814 89.0905 158.898 89.4382C158.962 89.7002 158.95 89.9803 158.951 90.2523C158.951 90.619 159.055 90.9823 158.895 91.3545C158.788 91.6038 158.994 91.7722 159.225 91.6332C159.55 91.438 159.901 91.4783 160.24 91.4446C160.569 91.4118 160.883 91.3695 161.176 91.222C161.583 91.0171 162.04 90.9651 162.484 90.8797C163.018 90.777 163.569 90.7332 164.088 90.5878C164.395 90.5015 164.694 90.3795 165.013 90.3147C165.231 90.2705 165.451 90.2285 165.657 90.155C165.88 90.0757 166.087 89.9609 166.308 89.8586C166.434 89.9148 166.559 89.9707 166.607 89.9922C166.823 89.9037 166.969 89.8534 167.106 89.7857C167.472 89.6039 167.846 89.5053 168.276 89.4935C168.644 89.4834 169.008 89.3314 169.372 89.2358C169.674 89.1566 169.973 89.0667 170.274 88.9847C170.512 88.9201 170.748 88.8491 170.99 88.8012C171.411 88.7179 171.837 88.6526 172.26 88.5756C172.654 88.5036 173.048 88.4299 173.441 88.3487C173.54 88.3282 173.632 88.2768 173.727 88.2383C173.928 88.1569 174.126 88.1033 174.358 88.0884C174.644 88.0702 174.922 87.9399 175.201 87.8532C175.288 87.8263 175.37 87.7496 175.452 87.753C175.916 87.7716 176.335 87.5772 176.788 87.5356C177.089 87.5079 177.381 87.3966 177.68 87.3388C177.949 87.2869 178.222 87.2557 178.493 87.219C178.544 87.2121 178.616 87.244 178.648 87.2218C179.135 86.8807 179.801 87.0069 180.297 86.6896C180.349 86.6562 180.419 86.6276 180.48 86.6283C180.847 86.6325 181.199 86.5684 181.546 86.4664C181.691 86.424 181.844 86.4017 181.995 86.384C182.477 86.3277 182.96 86.2778 183.442 86.2257C183.455 86.2243 183.471 86.2309 183.48 86.2257C183.947 85.9604 184.493 86.048 184.998 85.9604C185.624 85.8516 186.24 85.672 186.884 85.6512C187.014 85.647 187.144 85.6506 187.287 85.6506C187.464 85.461 187.674 85.3803 187.989 85.4189C188.321 85.4595 188.67 85.4079 189.007 85.3688C189.321 85.3324 189.629 85.2523 189.941 85.2052C190.099 85.1814 190.242 85.0947 190.431 85.1907C190.541 85.2468 190.753 85.2098 190.881 85.1477C191.189 84.9977 191.511 85.0618 191.805 85.1065C192.187 85.1646 192.555 85.315 192.919 85.4476C193.12 85.5206 193.257 85.6735 193.315 85.8397C193.251 85.9989 193.219 86.1443 193.138 86.2607C193.043 86.398 192.928 86.5516 192.779 86.624C192.519 86.7502 192.227 86.8199 191.948 86.9125C191.923 86.9206 191.891 86.9162 191.872 86.9292C191.487 87.1905 190.979 87.118 190.581 87.3196C190.114 87.5565 189.615 87.5598 189.11 87.5853C188.959 87.5929 188.811 87.6528 188.662 87.6915C188.576 87.7137 188.475 87.7826 188.41 87.7599C188.093 87.649 187.831 87.8247 187.543 87.8659C186.9 87.9578 186.253 88.0195 185.607 88.093C185.595 88.0944 185.581 88.0908 185.569 88.0864C185.325 87.9969 185.203 88.3545 184.918 88.2141C184.695 88.1046 184.456 88.2446 184.25 88.3409C184.076 88.4222 183.913 88.5728 183.717 88.5254C183.456 88.462 183.252 88.6184 183.037 88.6202C182.802 88.622 182.571 88.6064 182.346 88.672C181.863 88.813 181.355 88.8759 180.892 89.0811C180.782 89.1298 180.594 89.1875 180.532 89.1407C180.304 88.9679 180.166 89.1527 179.981 89.1911C179.637 89.2623 179.31 89.4324 178.923 89.3322C178.669 89.2663 178.411 89.3715 178.203 89.5252C178.073 89.6207 177.949 89.6506 177.777 89.6581C177.33 89.6777 176.862 89.6524 176.486 89.96C176.42 90.0133 176.254 90.0439 176.194 90.0059C176.009 89.8901 175.881 89.9785 175.732 90.0517C175.653 90.0904 175.56 90.1064 175.472 90.1275C175.396 90.1457 175.3 90.1355 175.243 90.1745C174.871 90.4262 174.428 90.4623 173.998 90.5379C173.923 90.5511 173.846 90.5764 173.771 90.5712C173.326 90.5403 172.927 90.6942 172.553 90.8721C172.306 90.9899 172.068 90.9981 171.812 91.01C171.635 91.0182 171.461 91.0231 171.302 91.1444C171.199 91.2222 171.02 91.2656 170.886 91.2493C170.351 91.1841 169.902 91.4536 169.408 91.5403C169.296 91.5598 169.188 91.5951 169.079 91.6237C168.876 91.6766 168.645 91.6372 168.482 91.8217C168.431 91.8789 168.269 91.9077 168.188 91.8783C167.812 91.7409 167.574 92.0406 167.264 92.1031C167.106 92.1351 166.961 92.2559 166.805 92.2635C165.971 92.3042 165.201 92.5756 164.415 92.7914C164.28 92.8284 164.135 92.8319 163.995 92.8523C163.93 92.8617 163.837 92.8541 163.808 92.8894C163.63 93.1089 163.363 93.0547 163.126 93.0991C162.934 93.135 162.752 93.2338 162.561 93.2472C162.167 93.2749 161.834 93.428 161.49 93.5841C161.325 93.659 161.111 93.6442 160.919 93.6676C160.705 93.6938 160.487 93.7025 160.277 93.746C160.056 93.7919 159.867 93.8961 159.606 93.8454C159.34 93.7937 159.065 94.1311 159.126 94.3893C159.193 94.6726 159.172 94.9539 159.187 95.2355C159.196 95.4143 159.218 95.6078 159.22 95.7924C159.224 96.2082 159.206 96.6243 159.191 97.0402C159.179 97.3923 159.15 97.744 159.146 98.0961C159.145 98.223 159.213 98.3493 159.223 98.4776C159.249 98.8258 159.263 99.1749 159.28 99.5236C159.291 99.7511 159.416 99.9693 159.361 100.2C159.261 100.621 159.33 101.04 159.352 101.461C159.363 101.677 159.249 101.924 159.329 102.107C159.43 102.338 159.331 102.554 159.392 102.77C159.454 102.991 159.553 103.217 159.542 103.437C159.526 103.738 159.625 104.051 159.453 104.345C159.402 104.43 159.406 104.551 159.414 104.655C159.432 104.912 159.468 105.168 159.495 105.425C159.545 105.899 159.519 106.37 159.485 106.845C159.465 107.122 159.56 107.406 159.599 107.687C159.615 107.806 159.645 107.931 159.623 108.046C159.537 108.488 159.581 108.921 159.648 109.361C159.698 109.688 159.772 110.021 159.65 110.361C159.596 110.513 159.609 110.706 159.657 110.864C159.874 111.59 159.772 112.327 159.784 113.061C159.788 113.316 159.753 113.579 159.875 113.833C159.929 113.946 159.901 114.104 159.897 114.227C159.875 114.832 159.998 115.425 160.034 116.024C160.037 116.072 160.054 116.124 160.04 116.167C159.87 116.669 160.091 117.156 160.098 117.65C160.102 117.979 160.194 118.309 160.017 118.632C159.868 118.904 159.544 119.148 159.215 119.203C158.83 119.267 158.513 119.091 158.199 118.949C158.068 118.889 157.991 118.709 157.918 118.571C157.843 118.427 157.799 118.269 157.749 118.115C157.682 117.91 157.621 117.704 157.562 117.497C157.546 117.44 157.533 117.376 157.544 117.319C157.58 117.136 157.565 116.968 157.487 116.788C157.443 116.684 157.487 116.527 157.54 116.414C157.618 116.245 157.608 116.104 157.55 115.928C157.466 115.671 157.407 115.408 157.438 115.123C157.478 114.746 157.486 114.359 157.345 113.988C157.311 113.9 157.314 113.799 157.312 113.704C157.308 113.503 157.348 113.299 157.224 113.113C157.204 113.083 157.192 113.042 157.195 113.008C157.247 112.524 157.19 112.04 157.205 111.556C157.215 111.235 157.177 110.913 157.17 110.591C157.164 110.328 157.15 110.063 157.177 109.802C157.233 109.259 157.137 108.734 157.016 108.208C157.003 108.151 156.972 108.084 156.992 108.037C157.163 107.641 157.073 107.234 157.065 106.83C157.062 106.673 157.099 106.51 156.963 106.369C156.919 106.324 156.905 106.224 156.925 106.162C157.071 105.712 156.972 105.267 156.93 104.818C156.914 104.645 156.993 104.467 156.995 104.29C157.003 103.82 156.85 103.362 156.852 102.89C156.853 102.664 156.86 102.437 156.843 102.212C156.812 101.8 156.946 101.391 156.853 100.979C156.746 100.506 156.807 100.032 156.861 99.559C156.904 99.1721 156.864 98.7962 156.722 98.4264C156.677 98.3091 156.681 98.1735 156.676 98.0458C156.667 97.7822 156.74 97.5225 156.605 97.255C156.54 97.1279 156.612 96.9346 156.645 96.7752C156.707 96.4695 156.711 96.172 156.658 95.8601C156.621 95.6388 156.736 95.3983 156.721 95.17C156.71 95.008 156.786 94.7814 156.483 94.6822Z"/>
</mask>
<path d="M156.483 94.6822C156.165 94.9248 155.793 94.9375 155.405 94.9255C155.173 94.9183 154.938 94.9563 154.706 94.9878C154.438 95.0244 154.172 95.1107 153.904 95.1132C153.535 95.1166 153.197 94.9683 152.907 94.7673C152.336 94.3721 152.421 93.8179 152.725 93.4205C152.74 93.4009 152.773 93.3872 152.777 93.367C152.863 92.9837 153.268 92.9537 153.546 92.7858C153.603 92.7513 153.693 92.7561 153.769 92.7553C154.25 92.7496 154.721 92.747 155.18 92.5461C155.464 92.4219 155.807 92.4108 156.125 92.3523C156.49 92.285 156.521 92.2387 156.405 91.9281C156.383 91.8716 156.337 91.7997 156.357 91.7573C156.575 91.3049 156.269 90.8294 156.435 90.3758C156.454 90.3232 156.438 90.2567 156.427 90.1982C156.322 89.5973 156.256 88.9949 156.327 88.3856C156.334 88.328 156.309 88.2672 156.297 88.2081C156.282 88.1341 156.306 87.8397 156.312 87.7449C156.319 87.6273 156.313 87.5065 156.292 87.3905C156.243 87.1322 156.2 86.8774 156.239 86.612C156.262 86.4635 156.287 86.2831 156.218 86.1617C156.058 85.8817 156.148 85.5929 156.161 85.3232C156.181 84.8802 156.064 84.4335 156.139 84.0099C156.198 83.6746 156.094 83.4184 155.994 83.1323C155.961 83.0371 155.974 82.9264 155.976 82.823C155.98 82.6103 156.01 82.3963 155.992 82.1855C155.974 81.9672 155.99 81.7632 156.042 81.5473C156.078 81.4035 155.973 81.2334 155.945 81.0731C155.93 80.985 155.908 80.8743 155.951 80.8056C156.105 80.5557 156.023 80.3075 155.987 80.0556C155.966 79.9039 155.938 79.7504 155.943 79.5987C155.957 79.2434 155.98 78.8921 155.95 78.5331C155.92 78.1641 155.936 77.7947 155.786 77.4421C155.777 77.4206 155.776 77.3936 155.78 77.3702C155.829 77.0334 155.884 76.6972 155.929 76.3598C155.961 76.116 155.921 75.88 155.87 75.636C155.782 75.2094 155.799 74.7708 155.857 74.3373C155.898 74.0347 155.831 73.7434 155.764 73.4498C155.745 73.3665 155.788 73.273 155.788 73.1842C155.787 73.024 155.772 72.8639 155.77 72.7036C155.769 72.6247 155.781 72.5455 155.788 72.4666C155.794 72.4101 155.831 72.3332 155.804 72.3012C155.705 72.1845 155.774 72.0578 155.751 71.9474C155.675 71.5784 155.822 71.2351 155.832 70.8799C155.84 70.5729 155.805 70.2648 155.807 69.9574C155.808 69.8573 155.84 69.7384 155.906 69.6618C156.032 69.5133 156.197 69.3937 156.336 69.2532C156.622 68.9639 157.007 68.9578 157.381 68.9553C157.679 68.9532 158.071 69.2871 158.152 69.5704C158.234 69.8559 158.305 70.1439 158.39 70.4655C158.586 70.4235 158.809 70.3748 159.034 70.3278C159.122 70.3092 159.212 70.2971 159.3 70.277C159.424 70.2487 159.628 70.3637 159.637 70.1231C159.84 70.204 159.972 69.981 160.146 70.0121C160.414 70.0598 160.662 70.0323 160.891 69.9128C161.218 69.7415 161.639 69.8396 161.939 69.5938C161.985 69.5565 162.062 69.5315 162.123 69.5334C162.932 69.5589 163.652 69.2143 164.42 69.0761C164.761 69.0148 165.108 68.9748 165.454 68.9516C165.69 68.9358 165.909 68.8828 166.137 68.8365C166.674 68.7271 167.178 68.5049 167.742 68.4729C168.294 68.4417 168.854 68.3862 169.384 68.2513C169.644 68.1851 169.885 68.196 170.135 68.1697C170.333 68.1489 170.527 68.0951 170.722 68.0534C171.031 67.9874 171.34 67.9192 171.648 67.8522C171.737 67.8331 171.824 67.8059 171.914 67.7981C172.353 67.7594 172.792 67.7223 173.232 67.6924C173.412 67.6801 173.594 67.6947 173.775 67.6835C173.903 67.6755 174.034 67.6575 174.157 67.6217C174.506 67.5195 174.844 67.3551 175.2 67.3072C175.976 67.203 176.736 67.0052 177.523 66.9793C177.901 66.7821 178.346 66.9461 178.73 66.7867C179.153 66.8988 179.545 66.5193 179.974 66.722C180.341 66.6472 180.708 66.5713 181.076 66.4983C181.201 66.4735 181.327 66.4487 181.454 66.4367C181.792 66.4047 182.134 66.4214 182.456 66.2728C182.588 66.2117 182.763 66.2199 182.92 66.2144C183.15 66.2062 183.371 66.199 183.585 66.0875C183.715 66.0199 183.886 66.0119 184.042 65.9951C184.518 65.9435 184.995 65.9063 185.476 65.9489C185.576 65.9578 185.681 65.9259 185.782 65.9072C185.987 65.8694 186.199 65.7754 186.394 65.799C186.775 65.845 187.116 65.7581 187.465 65.6575C187.517 65.6424 187.585 65.6779 187.645 65.6777C187.714 65.6776 187.799 65.6844 187.85 65.652C187.979 65.5691 188.116 65.5905 188.258 65.5764C188.614 65.5409 188.967 65.5148 189.322 65.5741C189.86 65.3625 190.423 65.4049 190.989 65.411C191.319 65.4144 191.649 65.2979 191.982 65.2556C192.147 65.2347 192.319 65.2558 192.487 65.2659C192.551 65.2698 192.62 65.3216 192.675 65.3085C193.063 65.215 193.384 65.3854 193.733 65.4917C194.357 65.6818 194.861 66.3073 194.891 66.8686C194.907 67.1676 194.705 67.4052 194.504 67.6406C194.363 67.8067 194.189 67.7869 194.017 67.8195C193.726 67.8746 193.442 67.8691 193.181 67.7143C192.937 67.5693 192.668 67.6709 192.411 67.6496C192.283 67.6392 192.139 67.6766 192.03 67.6338C191.578 67.4572 191.138 67.6204 190.693 67.6438C190.431 67.6576 190.167 67.6709 189.906 67.6965C189.62 67.7245 189.337 67.7706 189.052 67.8013C188.35 67.8767 187.642 67.9197 186.947 68.0293C186.388 68.1176 185.831 68.1565 185.267 68.1956C184.947 68.2178 184.609 68.2249 184.287 68.2984C183.96 68.3732 183.63 68.4818 183.299 68.4873C182.69 68.4975 182.1 68.6016 181.523 68.7433C180.954 68.8827 180.379 68.8555 179.807 68.909C179.54 68.934 179.251 68.9425 179.02 69.0481C178.843 69.1288 178.703 69.0902 178.543 69.0992C178.35 69.1102 178.159 69.1451 177.967 69.1706C177.524 69.2293 177.076 69.2651 176.641 69.3536C176.113 69.4609 175.593 69.5745 175.049 69.6241C174.5 69.6743 173.964 69.8516 173.422 69.9724C173.334 69.9919 173.246 70.0117 173.156 70.0229C172.774 70.071 172.392 70.1213 172.008 70.16C171.761 70.185 171.509 70.1812 171.262 70.2096C171.071 70.2315 170.884 70.286 170.695 70.3215C170.403 70.3762 170.11 70.464 169.817 70.4704C169.419 70.4792 169.048 70.5584 168.668 70.6501C168.197 70.7637 167.711 70.8217 167.232 70.9069C167.157 70.9203 167.086 70.9526 167.012 70.9729C166.703 71.0581 166.39 71.2167 166.085 71.2065C165.754 71.1954 165.439 71.2421 165.125 71.2859C164.797 71.3314 164.464 71.3629 164.144 71.4853C163.88 71.5866 163.574 71.5945 163.286 71.6464C162.794 71.7354 162.287 71.7639 161.842 72.0267C161.696 72.1133 161.487 72.1095 161.307 72.1514C161.12 72.1951 160.936 72.2524 160.747 72.2888C160.346 72.3663 159.942 72.4347 159.54 72.5053C159.465 72.5183 159.384 72.5109 159.315 72.5362C159.111 72.6119 158.926 72.7207 158.685 72.7118C158.588 72.7082 158.486 72.8178 158.419 72.8568C158.372 73.245 158.314 73.6077 158.288 73.9724C158.265 74.2915 158.277 74.6128 158.276 74.9331C158.274 75.4092 158.286 75.8857 158.268 76.3611C158.259 76.5794 158.26 76.7753 158.348 76.9923C158.439 77.2188 158.474 77.4999 158.416 77.7322C158.358 77.9632 158.393 78.1691 158.407 78.3888C158.424 78.6359 158.405 78.8849 158.414 79.1326C158.431 79.6145 158.485 80.0968 158.472 80.5777C158.456 81.1504 158.453 81.7225 158.459 82.295C158.459 82.3425 158.428 82.3988 158.447 82.4361C158.677 82.897 158.599 83.3799 158.595 83.8614C158.593 84.0629 158.531 84.2762 158.658 84.4785C158.703 84.5503 158.663 84.6664 158.663 84.7623C158.663 85.4662 158.664 86.17 158.661 86.8738C158.66 87.1048 158.851 87.3156 158.741 87.5567C158.941 87.827 158.774 88.1147 158.78 88.3928C158.787 88.7462 158.814 89.0905 158.898 89.4382C158.962 89.7002 158.95 89.9803 158.951 90.2523C158.951 90.619 159.055 90.9823 158.895 91.3545C158.788 91.6038 158.994 91.7722 159.225 91.6332C159.55 91.438 159.901 91.4783 160.24 91.4446C160.569 91.4118 160.883 91.3695 161.176 91.222C161.583 91.0171 162.04 90.9651 162.484 90.8797C163.018 90.777 163.569 90.7332 164.088 90.5878C164.395 90.5015 164.694 90.3795 165.013 90.3147C165.231 90.2705 165.451 90.2285 165.657 90.155C165.88 90.0757 166.087 89.9609 166.308 89.8586C166.434 89.9148 166.559 89.9707 166.607 89.9922C166.823 89.9037 166.969 89.8534 167.106 89.7857C167.472 89.6039 167.846 89.5053 168.276 89.4935C168.644 89.4834 169.008 89.3314 169.372 89.2358C169.674 89.1566 169.973 89.0667 170.274 88.9847C170.512 88.9201 170.748 88.8491 170.99 88.8012C171.411 88.7179 171.837 88.6526 172.26 88.5756C172.654 88.5036 173.048 88.4299 173.441 88.3487C173.54 88.3282 173.632 88.2768 173.727 88.2383C173.928 88.1569 174.126 88.1033 174.358 88.0884C174.644 88.0702 174.922 87.9399 175.201 87.8532C175.288 87.8263 175.37 87.7496 175.452 87.753C175.916 87.7716 176.335 87.5772 176.788 87.5356C177.089 87.5079 177.381 87.3966 177.68 87.3388C177.949 87.2869 178.222 87.2557 178.493 87.219C178.544 87.2121 178.616 87.244 178.648 87.2218C179.135 86.8807 179.801 87.0069 180.297 86.6896C180.349 86.6562 180.419 86.6276 180.48 86.6283C180.847 86.6325 181.199 86.5684 181.546 86.4664C181.691 86.424 181.844 86.4017 181.995 86.384C182.477 86.3277 182.96 86.2778 183.442 86.2257C183.455 86.2243 183.471 86.2309 183.48 86.2257C183.947 85.9604 184.493 86.048 184.998 85.9604C185.624 85.8516 186.24 85.672 186.884 85.6512C187.014 85.647 187.144 85.6506 187.287 85.6506C187.464 85.461 187.674 85.3803 187.989 85.4189C188.321 85.4595 188.67 85.4079 189.007 85.3688C189.321 85.3324 189.629 85.2523 189.941 85.2052C190.099 85.1814 190.242 85.0947 190.431 85.1907C190.541 85.2468 190.753 85.2098 190.881 85.1477C191.189 84.9977 191.511 85.0618 191.805 85.1065C192.187 85.1646 192.555 85.315 192.919 85.4476C193.12 85.5206 193.257 85.6735 193.315 85.8397C193.251 85.9989 193.219 86.1443 193.138 86.2607C193.043 86.398 192.928 86.5516 192.779 86.624C192.519 86.7502 192.227 86.8199 191.948 86.9125C191.923 86.9206 191.891 86.9162 191.872 86.9292C191.487 87.1905 190.979 87.118 190.581 87.3196C190.114 87.5565 189.615 87.5598 189.11 87.5853C188.959 87.5929 188.811 87.6528 188.662 87.6915C188.576 87.7137 188.475 87.7826 188.41 87.7599C188.093 87.649 187.831 87.8247 187.543 87.8659C186.9 87.9578 186.253 88.0195 185.607 88.093C185.595 88.0944 185.581 88.0908 185.569 88.0864C185.325 87.9969 185.203 88.3545 184.918 88.2141C184.695 88.1046 184.456 88.2446 184.25 88.3409C184.076 88.4222 183.913 88.5728 183.717 88.5254C183.456 88.462 183.252 88.6184 183.037 88.6202C182.802 88.622 182.571 88.6064 182.346 88.672C181.863 88.813 181.355 88.8759 180.892 89.0811C180.782 89.1298 180.594 89.1875 180.532 89.1407C180.304 88.9679 180.166 89.1527 179.981 89.1911C179.637 89.2623 179.31 89.4324 178.923 89.3322C178.669 89.2663 178.411 89.3715 178.203 89.5252C178.073 89.6207 177.949 89.6506 177.777 89.6581C177.33 89.6777 176.862 89.6524 176.486 89.96C176.42 90.0133 176.254 90.0439 176.194 90.0059C176.009 89.8901 175.881 89.9785 175.732 90.0517C175.653 90.0904 175.56 90.1064 175.472 90.1275C175.396 90.1457 175.3 90.1355 175.243 90.1745C174.871 90.4262 174.428 90.4623 173.998 90.5379C173.923 90.5511 173.846 90.5764 173.771 90.5712C173.326 90.5403 172.927 90.6942 172.553 90.8721C172.306 90.9899 172.068 90.9981 171.812 91.01C171.635 91.0182 171.461 91.0231 171.302 91.1444C171.199 91.2222 171.02 91.2656 170.886 91.2493C170.351 91.1841 169.902 91.4536 169.408 91.5403C169.296 91.5598 169.188 91.5951 169.079 91.6237C168.876 91.6766 168.645 91.6372 168.482 91.8217C168.431 91.8789 168.269 91.9077 168.188 91.8783C167.812 91.7409 167.574 92.0406 167.264 92.1031C167.106 92.1351 166.961 92.2559 166.805 92.2635C165.971 92.3042 165.201 92.5756 164.415 92.7914C164.28 92.8284 164.135 92.8319 163.995 92.8523C163.93 92.8617 163.837 92.8541 163.808 92.8894C163.63 93.1089 163.363 93.0547 163.126 93.0991C162.934 93.135 162.752 93.2338 162.561 93.2472C162.167 93.2749 161.834 93.428 161.49 93.5841C161.325 93.659 161.111 93.6442 160.919 93.6676C160.705 93.6938 160.487 93.7025 160.277 93.746C160.056 93.7919 159.867 93.8961 159.606 93.8454C159.34 93.7937 159.065 94.1311 159.126 94.3893C159.193 94.6726 159.172 94.9539 159.187 95.2355C159.196 95.4143 159.218 95.6078 159.22 95.7924C159.224 96.2082 159.206 96.6243 159.191 97.0402C159.179 97.3923 159.15 97.744 159.146 98.0961C159.145 98.223 159.213 98.3493 159.223 98.4776C159.249 98.8258 159.263 99.1749 159.28 99.5236C159.291 99.7511 159.416 99.9693 159.361 100.2C159.261 100.621 159.33 101.04 159.352 101.461C159.363 101.677 159.249 101.924 159.329 102.107C159.43 102.338 159.331 102.554 159.392 102.77C159.454 102.991 159.553 103.217 159.542 103.437C159.526 103.738 159.625 104.051 159.453 104.345C159.402 104.43 159.406 104.551 159.414 104.655C159.432 104.912 159.468 105.168 159.495 105.425C159.545 105.899 159.519 106.37 159.485 106.845C159.465 107.122 159.56 107.406 159.599 107.687C159.615 107.806 159.645 107.931 159.623 108.046C159.537 108.488 159.581 108.921 159.648 109.361C159.698 109.688 159.772 110.021 159.65 110.361C159.596 110.513 159.609 110.706 159.657 110.864C159.874 111.59 159.772 112.327 159.784 113.061C159.788 113.316 159.753 113.579 159.875 113.833C159.929 113.946 159.901 114.104 159.897 114.227C159.875 114.832 159.998 115.425 160.034 116.024C160.037 116.072 160.054 116.124 160.04 116.167C159.87 116.669 160.091 117.156 160.098 117.65C160.102 117.979 160.194 118.309 160.017 118.632C159.868 118.904 159.544 119.148 159.215 119.203C158.83 119.267 158.513 119.091 158.199 118.949C158.068 118.889 157.991 118.709 157.918 118.571C157.843 118.427 157.799 118.269 157.749 118.115C157.682 117.91 157.621 117.704 157.562 117.497C157.546 117.44 157.533 117.376 157.544 117.319C157.58 117.136 157.565 116.968 157.487 116.788C157.443 116.684 157.487 116.527 157.54 116.414C157.618 116.245 157.608 116.104 157.55 115.928C157.466 115.671 157.407 115.408 157.438 115.123C157.478 114.746 157.486 114.359 157.345 113.988C157.311 113.9 157.314 113.799 157.312 113.704C157.308 113.503 157.348 113.299 157.224 113.113C157.204 113.083 157.192 113.042 157.195 113.008C157.247 112.524 157.19 112.04 157.205 111.556C157.215 111.235 157.177 110.913 157.17 110.591C157.164 110.328 157.15 110.063 157.177 109.802C157.233 109.259 157.137 108.734 157.016 108.208C157.003 108.151 156.972 108.084 156.992 108.037C157.163 107.641 157.073 107.234 157.065 106.83C157.062 106.673 157.099 106.51 156.963 106.369C156.919 106.324 156.905 106.224 156.925 106.162C157.071 105.712 156.972 105.267 156.93 104.818C156.914 104.645 156.993 104.467 156.995 104.29C157.003 103.82 156.85 103.362 156.852 102.89C156.853 102.664 156.86 102.437 156.843 102.212C156.812 101.8 156.946 101.391 156.853 100.979C156.746 100.506 156.807 100.032 156.861 99.559C156.904 99.1721 156.864 98.7962 156.722 98.4264C156.677 98.3091 156.681 98.1735 156.676 98.0458C156.667 97.7822 156.74 97.5225 156.605 97.255C156.54 97.1279 156.612 96.9346 156.645 96.7752C156.707 96.4695 156.711 96.172 156.658 95.8601C156.621 95.6388 156.736 95.3983 156.721 95.17C156.71 95.008 156.786 94.7814 156.483 94.6822Z" fill="black"/>
<path d="M156.483 94.6822C156.165 94.9248 155.793 94.9375 155.405 94.9255C155.173 94.9183 154.938 94.9563 154.706 94.9878C154.438 95.0244 154.172 95.1107 153.904 95.1132C153.535 95.1166 153.197 94.9683 152.907 94.7673C152.336 94.3721 152.421 93.8179 152.725 93.4205C152.74 93.4009 152.773 93.3872 152.777 93.367C152.863 92.9837 153.268 92.9537 153.546 92.7858C153.603 92.7513 153.693 92.7561 153.769 92.7553C154.25 92.7496 154.721 92.747 155.18 92.5461C155.464 92.4219 155.807 92.4108 156.125 92.3523C156.49 92.285 156.521 92.2387 156.405 91.9281C156.383 91.8716 156.337 91.7997 156.357 91.7573C156.575 91.3049 156.269 90.8294 156.435 90.3758C156.454 90.3232 156.438 90.2567 156.427 90.1982C156.322 89.5973 156.256 88.9949 156.327 88.3856C156.334 88.328 156.309 88.2672 156.297 88.2081C156.282 88.1341 156.306 87.8397 156.312 87.7449C156.319 87.6273 156.313 87.5065 156.292 87.3905C156.243 87.1322 156.2 86.8774 156.239 86.612C156.262 86.4635 156.287 86.2831 156.218 86.1617C156.058 85.8817 156.148 85.5929 156.161 85.3232C156.181 84.8802 156.064 84.4335 156.139 84.0099C156.198 83.6746 156.094 83.4184 155.994 83.1323C155.961 83.0371 155.974 82.9264 155.976 82.823C155.98 82.6103 156.01 82.3963 155.992 82.1855C155.974 81.9672 155.99 81.7632 156.042 81.5473C156.078 81.4035 155.973 81.2334 155.945 81.0731C155.93 80.985 155.908 80.8743 155.951 80.8056C156.105 80.5557 156.023 80.3075 155.987 80.0556C155.966 79.9039 155.938 79.7504 155.943 79.5987C155.957 79.2434 155.98 78.8921 155.95 78.5331C155.92 78.1641 155.936 77.7947 155.786 77.4421C155.777 77.4206 155.776 77.3936 155.78 77.3702C155.829 77.0334 155.884 76.6972 155.929 76.3598C155.961 76.116 155.921 75.88 155.87 75.636C155.782 75.2094 155.799 74.7708 155.857 74.3373C155.898 74.0347 155.831 73.7434 155.764 73.4498C155.745 73.3665 155.788 73.273 155.788 73.1842C155.787 73.024 155.772 72.8639 155.77 72.7036C155.769 72.6247 155.781 72.5455 155.788 72.4666C155.794 72.4101 155.831 72.3332 155.804 72.3012C155.705 72.1845 155.774 72.0578 155.751 71.9474C155.675 71.5784 155.822 71.2351 155.832 70.8799C155.84 70.5729 155.805 70.2648 155.807 69.9574C155.808 69.8573 155.84 69.7384 155.906 69.6618C156.032 69.5133 156.197 69.3937 156.336 69.2532C156.622 68.9639 157.007 68.9578 157.381 68.9553C157.679 68.9532 158.071 69.2871 158.152 69.5704C158.234 69.8559 158.305 70.1439 158.39 70.4655C158.586 70.4235 158.809 70.3748 159.034 70.3278C159.122 70.3092 159.212 70.2971 159.3 70.277C159.424 70.2487 159.628 70.3637 159.637 70.1231C159.84 70.204 159.972 69.981 160.146 70.0121C160.414 70.0598 160.662 70.0323 160.891 69.9128C161.218 69.7415 161.639 69.8396 161.939 69.5938C161.985 69.5565 162.062 69.5315 162.123 69.5334C162.932 69.5589 163.652 69.2143 164.42 69.0761C164.761 69.0148 165.108 68.9748 165.454 68.9516C165.69 68.9358 165.909 68.8828 166.137 68.8365C166.674 68.7271 167.178 68.5049 167.742 68.4729C168.294 68.4417 168.854 68.3862 169.384 68.2513C169.644 68.1851 169.885 68.196 170.135 68.1697C170.333 68.1489 170.527 68.0951 170.722 68.0534C171.031 67.9874 171.34 67.9192 171.648 67.8522C171.737 67.8331 171.824 67.8059 171.914 67.7981C172.353 67.7594 172.792 67.7223 173.232 67.6924C173.412 67.6801 173.594 67.6947 173.775 67.6835C173.903 67.6755 174.034 67.6575 174.157 67.6217C174.506 67.5195 174.844 67.3551 175.2 67.3072C175.976 67.203 176.736 67.0052 177.523 66.9793C177.901 66.7821 178.346 66.9461 178.73 66.7867C179.153 66.8988 179.545 66.5193 179.974 66.722C180.341 66.6472 180.708 66.5713 181.076 66.4983C181.201 66.4735 181.327 66.4487 181.454 66.4367C181.792 66.4047 182.134 66.4214 182.456 66.2728C182.588 66.2117 182.763 66.2199 182.92 66.2144C183.15 66.2062 183.371 66.199 183.585 66.0875C183.715 66.0199 183.886 66.0119 184.042 65.9951C184.518 65.9435 184.995 65.9063 185.476 65.9489C185.576 65.9578 185.681 65.9259 185.782 65.9072C185.987 65.8694 186.199 65.7754 186.394 65.799C186.775 65.845 187.116 65.7581 187.465 65.6575C187.517 65.6424 187.585 65.6779 187.645 65.6777C187.714 65.6776 187.799 65.6844 187.85 65.652C187.979 65.5691 188.116 65.5905 188.258 65.5764C188.614 65.5409 188.967 65.5148 189.322 65.5741C189.86 65.3625 190.423 65.4049 190.989 65.411C191.319 65.4144 191.649 65.2979 191.982 65.2556C192.147 65.2347 192.319 65.2558 192.487 65.2659C192.551 65.2698 192.62 65.3216 192.675 65.3085C193.063 65.215 193.384 65.3854 193.733 65.4917C194.357 65.6818 194.861 66.3073 194.891 66.8686C194.907 67.1676 194.705 67.4052 194.504 67.6406C194.363 67.8067 194.189 67.7869 194.017 67.8195C193.726 67.8746 193.442 67.8691 193.181 67.7143C192.937 67.5693 192.668 67.6709 192.411 67.6496C192.283 67.6392 192.139 67.6766 192.03 67.6338C191.578 67.4572 191.138 67.6204 190.693 67.6438C190.431 67.6576 190.167 67.6709 189.906 67.6965C189.62 67.7245 189.337 67.7706 189.052 67.8013C188.35 67.8767 187.642 67.9197 186.947 68.0293C186.388 68.1176 185.831 68.1565 185.267 68.1956C184.947 68.2178 184.609 68.2249 184.287 68.2984C183.96 68.3732 183.63 68.4818 183.299 68.4873C182.69 68.4975 182.1 68.6016 181.523 68.7433C180.954 68.8827 180.379 68.8555 179.807 68.909C179.54 68.934 179.251 68.9425 179.02 69.0481C178.843 69.1288 178.703 69.0902 178.543 69.0992C178.35 69.1102 178.159 69.1451 177.967 69.1706C177.524 69.2293 177.076 69.2651 176.641 69.3536C176.113 69.4609 175.593 69.5745 175.049 69.6241C174.5 69.6743 173.964 69.8516 173.422 69.9724C173.334 69.9919 173.246 70.0117 173.156 70.0229C172.774 70.071 172.392 70.1213 172.008 70.16C171.761 70.185 171.509 70.1812 171.262 70.2096C171.071 70.2315 170.884 70.286 170.695 70.3215C170.403 70.3762 170.11 70.464 169.817 70.4704C169.419 70.4792 169.048 70.5584 168.668 70.6501C168.197 70.7637 167.711 70.8217 167.232 70.9069C167.157 70.9203 167.086 70.9526 167.012 70.9729C166.703 71.0581 166.39 71.2167 166.085 71.2065C165.754 71.1954 165.439 71.2421 165.125 71.2859C164.797 71.3314 164.464 71.3629 164.144 71.4853C163.88 71.5866 163.574 71.5945 163.286 71.6464C162.794 71.7354 162.287 71.7639 161.842 72.0267C161.696 72.1133 161.487 72.1095 161.307 72.1514C161.12 72.1951 160.936 72.2524 160.747 72.2888C160.346 72.3663 159.942 72.4347 159.54 72.5053C159.465 72.5183 159.384 72.5109 159.315 72.5362C159.111 72.6119 158.926 72.7207 158.685 72.7118C158.588 72.7082 158.486 72.8178 158.419 72.8568C158.372 73.245 158.314 73.6077 158.288 73.9724C158.265 74.2915 158.277 74.6128 158.276 74.9331C158.274 75.4092 158.286 75.8857 158.268 76.3611C158.259 76.5794 158.26 76.7753 158.348 76.9923C158.439 77.2188 158.474 77.4999 158.416 77.7322C158.358 77.9632 158.393 78.1691 158.407 78.3888C158.424 78.6359 158.405 78.8849 158.414 79.1326C158.431 79.6145 158.485 80.0968 158.472 80.5777C158.456 81.1504 158.453 81.7225 158.459 82.295C158.459 82.3425 158.428 82.3988 158.447 82.4361C158.677 82.897 158.599 83.3799 158.595 83.8614C158.593 84.0629 158.531 84.2762 158.658 84.4785C158.703 84.5503 158.663 84.6664 158.663 84.7623C158.663 85.4662 158.664 86.17 158.661 86.8738C158.66 87.1048 158.851 87.3156 158.741 87.5567C158.941 87.827 158.774 88.1147 158.78 88.3928C158.787 88.7462 158.814 89.0905 158.898 89.4382C158.962 89.7002 158.95 89.9803 158.951 90.2523C158.951 90.619 159.055 90.9823 158.895 91.3545C158.788 91.6038 158.994 91.7722 159.225 91.6332C159.55 91.438 159.901 91.4783 160.24 91.4446C160.569 91.4118 160.883 91.3695 161.176 91.222C161.583 91.0171 162.04 90.9651 162.484 90.8797C163.018 90.777 163.569 90.7332 164.088 90.5878C164.395 90.5015 164.694 90.3795 165.013 90.3147C165.231 90.2705 165.451 90.2285 165.657 90.155C165.88 90.0757 166.087 89.9609 166.308 89.8586C166.434 89.9148 166.559 89.9707 166.607 89.9922C166.823 89.9037 166.969 89.8534 167.106 89.7857C167.472 89.6039 167.846 89.5053 168.276 89.4935C168.644 89.4834 169.008 89.3314 169.372 89.2358C169.674 89.1566 169.973 89.0667 170.274 88.9847C170.512 88.9201 170.748 88.8491 170.99 88.8012C171.411 88.7179 171.837 88.6526 172.26 88.5756C172.654 88.5036 173.048 88.4299 173.441 88.3487C173.54 88.3282 173.632 88.2768 173.727 88.2383C173.928 88.1569 174.126 88.1033 174.358 88.0884C174.644 88.0702 174.922 87.9399 175.201 87.8532C175.288 87.8263 175.37 87.7496 175.452 87.753C175.916 87.7716 176.335 87.5772 176.788 87.5356C177.089 87.5079 177.381 87.3966 177.68 87.3388C177.949 87.2869 178.222 87.2557 178.493 87.219C178.544 87.2121 178.616 87.244 178.648 87.2218C179.135 86.8807 179.801 87.0069 180.297 86.6896C180.349 86.6562 180.419 86.6276 180.48 86.6283C180.847 86.6325 181.199 86.5684 181.546 86.4664C181.691 86.424 181.844 86.4017 181.995 86.384C182.477 86.3277 182.96 86.2778 183.442 86.2257C183.455 86.2243 183.471 86.2309 183.48 86.2257C183.947 85.9604 184.493 86.048 184.998 85.9604C185.624 85.8516 186.24 85.672 186.884 85.6512C187.014 85.647 187.144 85.6506 187.287 85.6506C187.464 85.461 187.674 85.3803 187.989 85.4189C188.321 85.4595 188.67 85.4079 189.007 85.3688C189.321 85.3324 189.629 85.2523 189.941 85.2052C190.099 85.1814 190.242 85.0947 190.431 85.1907C190.541 85.2468 190.753 85.2098 190.881 85.1477C191.189 84.9977 191.511 85.0618 191.805 85.1065C192.187 85.1646 192.555 85.315 192.919 85.4476C193.12 85.5206 193.257 85.6735 193.315 85.8397C193.251 85.9989 193.219 86.1443 193.138 86.2607C193.043 86.398 192.928 86.5516 192.779 86.624C192.519 86.7502 192.227 86.8199 191.948 86.9125C191.923 86.9206 191.891 86.9162 191.872 86.9292C191.487 87.1905 190.979 87.118 190.581 87.3196C190.114 87.5565 189.615 87.5598 189.11 87.5853C188.959 87.5929 188.811 87.6528 188.662 87.6915C188.576 87.7137 188.475 87.7826 188.41 87.7599C188.093 87.649 187.831 87.8247 187.543 87.8659C186.9 87.9578 186.253 88.0195 185.607 88.093C185.595 88.0944 185.581 88.0908 185.569 88.0864C185.325 87.9969 185.203 88.3545 184.918 88.2141C184.695 88.1046 184.456 88.2446 184.25 88.3409C184.076 88.4222 183.913 88.5728 183.717 88.5254C183.456 88.462 183.252 88.6184 183.037 88.6202C182.802 88.622 182.571 88.6064 182.346 88.672C181.863 88.813 181.355 88.8759 180.892 89.0811C180.782 89.1298 180.594 89.1875 180.532 89.1407C180.304 88.9679 180.166 89.1527 179.981 89.1911C179.637 89.2623 179.31 89.4324 178.923 89.3322C178.669 89.2663 178.411 89.3715 178.203 89.5252C178.073 89.6207 177.949 89.6506 177.777 89.6581C177.33 89.6777 176.862 89.6524 176.486 89.96C176.42 90.0133 176.254 90.0439 176.194 90.0059C176.009 89.8901 175.881 89.9785 175.732 90.0517C175.653 90.0904 175.56 90.1064 175.472 90.1275C175.396 90.1457 175.3 90.1355 175.243 90.1745C174.871 90.4262 174.428 90.4623 173.998 90.5379C173.923 90.5511 173.846 90.5764 173.771 90.5712C173.326 90.5403 172.927 90.6942 172.553 90.8721C172.306 90.9899 172.068 90.9981 171.812 91.01C171.635 91.0182 171.461 91.0231 171.302 91.1444C171.199 91.2222 171.02 91.2656 170.886 91.2493C170.351 91.1841 169.902 91.4536 169.408 91.5403C169.296 91.5598 169.188 91.5951 169.079 91.6237C168.876 91.6766 168.645 91.6372 168.482 91.8217C168.431 91.8789 168.269 91.9077 168.188 91.8783C167.812 91.7409 167.574 92.0406 167.264 92.1031C167.106 92.1351 166.961 92.2559 166.805 92.2635C165.971 92.3042 165.201 92.5756 164.415 92.7914C164.28 92.8284 164.135 92.8319 163.995 92.8523C163.93 92.8617 163.837 92.8541 163.808 92.8894C163.63 93.1089 163.363 93.0547 163.126 93.0991C162.934 93.135 162.752 93.2338 162.561 93.2472C162.167 93.2749 161.834 93.428 161.49 93.5841C161.325 93.659 161.111 93.6442 160.919 93.6676C160.705 93.6938 160.487 93.7025 160.277 93.746C160.056 93.7919 159.867 93.8961 159.606 93.8454C159.34 93.7937 159.065 94.1311 159.126 94.3893C159.193 94.6726 159.172 94.9539 159.187 95.2355C159.196 95.4143 159.218 95.6078 159.22 95.7924C159.224 96.2082 159.206 96.6243 159.191 97.0402C159.179 97.3923 159.15 97.744 159.146 98.0961C159.145 98.223 159.213 98.3493 159.223 98.4776C159.249 98.8258 159.263 99.1749 159.28 99.5236C159.291 99.7511 159.416 99.9693 159.361 100.2C159.261 100.621 159.33 101.04 159.352 101.461C159.363 101.677 159.249 101.924 159.329 102.107C159.43 102.338 159.331 102.554 159.392 102.77C159.454 102.991 159.553 103.217 159.542 103.437C159.526 103.738 159.625 104.051 159.453 104.345C159.402 104.43 159.406 104.551 159.414 104.655C159.432 104.912 159.468 105.168 159.495 105.425C159.545 105.899 159.519 106.37 159.485 106.845C159.465 107.122 159.56 107.406 159.599 107.687C159.615 107.806 159.645 107.931 159.623 108.046C159.537 108.488 159.581 108.921 159.648 109.361C159.698 109.688 159.772 110.021 159.65 110.361C159.596 110.513 159.609 110.706 159.657 110.864C159.874 111.59 159.772 112.327 159.784 113.061C159.788 113.316 159.753 113.579 159.875 113.833C159.929 113.946 159.901 114.104 159.897 114.227C159.875 114.832 159.998 115.425 160.034 116.024C160.037 116.072 160.054 116.124 160.04 116.167C159.87 116.669 160.091 117.156 160.098 117.65C160.102 117.979 160.194 118.309 160.017 118.632C159.868 118.904 159.544 119.148 159.215 119.203C158.83 119.267 158.513 119.091 158.199 118.949C158.068 118.889 157.991 118.709 157.918 118.571C157.843 118.427 157.799 118.269 157.749 118.115C157.682 117.91 157.621 117.704 157.562 117.497C157.546 117.44 157.533 117.376 157.544 117.319C157.58 117.136 157.565 116.968 157.487 116.788C157.443 116.684 157.487 116.527 157.54 116.414C157.618 116.245 157.608 116.104 157.55 115.928C157.466 115.671 157.407 115.408 157.438 115.123C157.478 114.746 157.486 114.359 157.345 113.988C157.311 113.9 157.314 113.799 157.312 113.704C157.308 113.503 157.348 113.299 157.224 113.113C157.204 113.083 157.192 113.042 157.195 113.008C157.247 112.524 157.19 112.04 157.205 111.556C157.215 111.235 157.177 110.913 157.17 110.591C157.164 110.328 157.15 110.063 157.177 109.802C157.233 109.259 157.137 108.734 157.016 108.208C157.003 108.151 156.972 108.084 156.992 108.037C157.163 107.641 157.073 107.234 157.065 106.83C157.062 106.673 157.099 106.51 156.963 106.369C156.919 106.324 156.905 106.224 156.925 106.162C157.071 105.712 156.972 105.267 156.93 104.818C156.914 104.645 156.993 104.467 156.995 104.29C157.003 103.82 156.85 103.362 156.852 102.89C156.853 102.664 156.86 102.437 156.843 102.212C156.812 101.8 156.946 101.391 156.853 100.979C156.746 100.506 156.807 100.032 156.861 99.559C156.904 99.1721 156.864 98.7962 156.722 98.4264C156.677 98.3091 156.681 98.1735 156.676 98.0458C156.667 97.7822 156.74 97.5225 156.605 97.255C156.54 97.1279 156.612 96.9346 156.645 96.7752C156.707 96.4695 156.711 96.172 156.658 95.8601C156.621 95.6388 156.736 95.3983 156.721 95.17C156.71 95.008 156.786 94.7814 156.483 94.6822Z" stroke="black" stroke-width="11.9933" mask="url(#path-5-outside-2_1_577)"/>
</svg>
